<svg xmlns="http://www.w3.org/2000/svg" width="20" height="20" viewBox="0 0 20 20" fill="none">
  <path d="M8.88473 0.597873L6.61367 0.08524C4.76104 -0.333182 2.92051 0.829452 2.50209 2.68209L1.98472 4.97209C3.47525 2.60524 5.97736 0.941031 8.88473 0.597873ZM0.597873 11.1153L0.08524 13.3863C-0.333182 15.239 0.829452 17.0795 2.68209 17.4979L4.97209 18.0153C2.60524 16.5242 0.941031 14.0226 0.597873 11.1153ZM17.3179 2.50209L15.0279 1.98472C17.3947 3.47525 19.059 5.97736 19.4021 8.8842L19.9148 6.61315C20.3332 4.76157 19.1705 2.92051 17.3179 2.50209ZM11.1153 19.4021L13.3863 19.9148C15.239 20.3332 17.0795 19.1705 17.4979 17.3179L18.0153 15.0279C16.5247 17.3947 14.0226 19.059 11.1153 19.4021Z" fill="#263238"/>
  <path d="M10 1.57892C5.34894 1.57892 1.57893 5.34893 1.57893 9.99999C1.57893 14.651 5.34894 18.4211 10 18.4211C14.6511 18.4211 18.4211 14.651 18.4211 9.99999C18.4211 5.34893 14.6511 1.57892 10 1.57892ZM7.89473 4.2105C9.05737 4.2105 10 5.15314 10 6.31577C10 7.4784 9.05737 8.42104 7.89473 8.42104C6.7321 8.42104 5.78947 7.4784 5.78947 6.31577C5.78947 5.15314 6.7321 4.2105 7.89473 4.2105ZM6.31578 14.2105C5.15315 14.2105 4.21052 13.2679 4.21052 12.1053C4.21052 10.9426 5.15315 9.99999 6.31578 9.99999C7.47842 9.99999 8.42105 10.9426 8.42105 12.1053C8.42105 13.2679 7.47842 14.2105 6.31578 14.2105ZM8.94737 9.99999C8.94737 9.41841 9.41842 8.94735 10 8.94735C10.5816 8.94735 11.0526 9.41841 11.0526 9.99999C11.0526 10.5816 10.5816 11.0526 10 11.0526C9.41842 11.0526 8.94737 10.5816 8.94737 9.99999ZM12.1053 15.7895C10.9426 15.7895 10 14.8468 10 13.6842C10 12.5216 10.9426 11.5789 12.1053 11.5789C13.2679 11.5789 14.2105 12.5216 14.2105 13.6842C14.2105 14.8468 13.2679 15.7895 12.1053 15.7895ZM13.6842 9.99999C12.5216 9.99999 11.579 9.05735 11.579 7.89472C11.579 6.73209 12.5216 5.78945 13.6842 5.78945C14.8469 5.78945 15.7895 6.73209 15.7895 7.89472C15.7895 9.05735 14.8469 9.99999 13.6842 9.99999Z" fill="#E91E63"/>
</svg>