<svg width="137" height="40" viewBox="0 0 137 40" fill="none" xmlns="http://www.w3.org/2000/svg">
    <g clip-path="url(#clip0_5374_79827)">
        <path
            d="M0.5 4C0.5 1.79086 2.29086 0 4.5 0H131.5C133.709 0 135.5 1.79086 135.5 4V36C135.5 38.2091 133.709 40 131.5 40H4.5C2.29086 40 0.5 38.2091 0.5 36V4Z"
            fill="white" />
        <path
            d="M106.73 15.1545C106.572 15.3188 106.491 15.517 106.491 15.7489C106.491 15.9809 106.572 16.1814 106.73 16.3505C106.89 16.5197 107.087 16.6042 107.32 16.6042C107.546 16.6042 107.738 16.5197 107.897 16.3505C108.056 16.1814 108.136 15.9809 108.136 15.7489C108.136 15.517 108.056 15.3188 107.897 15.1545C107.738 14.9902 107.546 14.9081 107.32 14.9081C107.087 14.9081 106.89 14.9902 106.73 15.1545Z"
            fill="#0C0C0C" />
        <path fill-rule="evenodd" clip-rule="evenodd"
            d="M104.635 22.577H104.54C104.267 22.577 104.008 22.5504 103.76 22.4973C103.512 22.4441 103.288 22.3354 103.092 22.1711C102.82 22.4417 102.478 22.577 102.066 22.577H96.4172C95.9032 22.577 95.5191 22.4224 95.2662 22.1131C95.0121 21.8038 94.8868 21.3641 94.8868 20.7939V19.1267H95.9547V20.6199C95.9547 20.9292 96.0167 21.1442 96.1444 21.265C96.2697 21.3858 96.4734 21.4462 96.7544 21.4462H101.841C102.131 21.4462 102.319 21.3786 102.403 21.2433C102.488 21.108 102.529 20.9014 102.529 20.6199V19.1267H103.625V20.6779C103.625 20.9775 103.721 21.1804 103.915 21.2868C104.107 21.3931 104.314 21.4462 104.54 21.4462L107.574 21.4463C107.912 21.4463 108.129 21.3763 108.228 21.2361C108.326 21.096 108.371 20.9293 108.361 20.736L106.984 20.6925C106.506 20.6732 106.16 20.5089 105.944 20.1996C105.729 19.8903 105.621 19.4941 105.621 19.0108C105.621 18.7499 105.665 18.5095 105.754 18.286C105.844 18.0637 105.968 17.8704 106.127 17.7061C106.286 17.5418 106.476 17.4137 106.696 17.3219C106.916 17.2301 107.162 17.1842 107.434 17.1842C107.751 17.1842 108.033 17.253 108.277 17.3871C108.52 17.5224 108.724 17.6988 108.888 17.9163C109.052 18.1337 109.175 18.3802 109.26 18.6556C109.345 18.9311 109.387 19.2138 109.387 19.5037V20.3301C109.387 20.6297 109.354 20.9148 109.289 21.1854C109.222 21.4572 109.121 21.6952 108.986 21.903C108.851 22.112 108.679 22.2751 108.474 22.3959C108.268 22.5167 108.024 22.5771 107.743 22.5771H104.652L104.635 22.577ZM108.284 19.1485C108.335 19.3079 108.361 19.4662 108.361 19.6196L107.209 19.5761C107.059 19.5677 106.907 19.5302 106.752 19.4674C106.598 19.4046 106.52 19.2717 106.52 19.0687C106.52 18.8561 106.579 18.6773 106.696 18.5323C106.813 18.3874 107.02 18.3149 107.32 18.3149C107.481 18.3149 107.623 18.3535 107.75 18.4309C107.876 18.5094 107.984 18.6072 108.073 18.728C108.162 18.8489 108.232 18.989 108.284 19.1485Z"
            fill="#0C0C0C" />
        <path d="M91.0919 22.5767H90.0662V15.5166H91.0919V22.5767Z" fill="#0C0C0C" />
        <path
            d="M87.2705 16.5029C87.1101 16.6672 87.0316 16.8653 87.0316 17.0972C87.0316 17.3292 87.1101 17.5297 87.2705 17.6989C87.4298 17.868 87.6265 17.9526 87.8607 17.9526C88.0855 17.9526 88.2763 17.868 88.4368 17.6989C88.596 17.5297 88.6756 17.3292 88.6756 17.0972C88.6756 16.8653 88.596 16.6672 88.4368 16.5029C88.2763 16.3386 88.0855 16.2564 87.8607 16.2564C87.6265 16.2564 87.4298 16.3386 87.2705 16.5029Z"
            fill="#0C0C0C" />
        <path
            d="M86.7717 23.8095C86.4485 24.0898 85.9591 24.2299 85.3034 24.2299H84.6289L84.8256 25.3607L85.6968 25.3752C86.109 25.3837 86.4813 25.3124 86.8127 25.1578C87.1464 25.0031 87.4274 24.7905 87.6569 24.5199C87.8853 24.2493 88.0644 23.9303 88.1909 23.5631C88.3174 23.1958 88.3806 22.7995 88.3806 22.3743V19.1269H87.2565V22.6497C87.2565 23.1426 87.0949 23.5292 86.7717 23.8095Z"
            fill="#0C0C0C" />
        <path
            d="M99.3539 17.503C99.3539 17.3 99.423 17.126 99.5588 16.9811C99.6935 16.8361 99.8609 16.7636 100.058 16.7636C100.254 16.7636 100.42 16.8361 100.555 16.9811C100.692 17.126 100.759 17.3 100.759 17.503C100.759 17.6963 100.692 17.863 100.555 18.0031C100.42 18.1433 100.254 18.2133 100.058 18.2133C99.8609 18.2133 99.6935 18.1433 99.5588 18.0031C99.423 17.863 99.3539 17.6963 99.3539 17.503Z"
            fill="#0C0C0C" />
        <path
            d="M97.4429 17.503C97.4429 17.3 97.512 17.126 97.6467 16.9811C97.7825 16.8361 97.9546 16.7636 98.1595 16.7636C98.3481 16.7636 98.5085 16.8361 98.6455 16.9811C98.7813 17.126 98.848 17.3 98.848 17.503C98.848 17.6963 98.7813 17.863 98.6455 18.0031C98.5085 18.1433 98.3481 18.2133 98.1595 18.2133C97.9546 18.2133 97.7825 18.1433 97.6467 18.0031C97.512 17.863 97.4429 17.6963 97.4429 17.503Z"
            fill="#0C0C0C" />
        <path
            d="M112.844 22.5772C112.299 22.5772 111.869 22.4347 111.551 22.1496C111.232 21.8645 111.072 21.4018 111.072 20.7651V15.5171H112.14V20.5766C112.14 20.9427 112.214 21.1807 112.359 21.287C112.504 21.3933 112.703 21.4452 112.956 21.4452L114.628 21.4457C114.805 21.4457 114.949 21.4252 115.056 21.3805C115.164 21.337 115.246 21.279 115.302 21.2078C115.358 21.1341 115.394 21.0471 115.408 20.9456C115.422 20.8441 115.429 20.7354 115.429 20.6206V19.1274H116.525V20.7934C116.525 21.3346 116.396 21.7683 116.138 22.0909C115.88 22.4158 115.485 22.5777 114.95 22.5777H113.209C113.197 22.5777 113.186 22.5776 113.175 22.5772H112.844Z"
            fill="#0C0C0C" />
        <path
            d="M114.592 23.9766C114.456 24.1156 114.388 24.2835 114.388 24.4756C114.388 24.6797 114.456 24.8525 114.592 24.9987C114.728 25.1437 114.899 25.2149 115.105 25.2149C115.291 25.2149 115.454 25.1437 115.59 24.9987C115.726 24.8525 115.794 24.6797 115.794 24.4756C115.794 24.2835 115.726 24.1156 115.59 23.9766C115.454 23.8365 115.291 23.7652 115.105 23.7652C114.899 23.7652 114.728 23.8365 114.592 23.9766Z"
            fill="#0C0C0C" />
        <path
            d="M112.794 23.9766C112.658 24.1156 112.59 24.2835 112.59 24.4756C112.59 24.6797 112.658 24.8525 112.794 24.9987C112.929 25.1437 113.096 25.2149 113.291 25.2149C113.489 25.2149 113.655 25.1437 113.791 24.9987C113.926 24.8525 113.995 24.6797 113.995 24.4756C113.995 24.2835 113.926 24.1156 113.791 23.9766C113.655 23.8365 113.489 23.7652 113.291 23.7652C113.096 23.7652 112.929 23.8365 112.794 23.9766Z"
            fill="#0C0C0C" />
        <path
            d="M118.428 23.8089C118.75 23.5299 118.913 23.1421 118.913 22.6492V19.1276H120.037V22.3749C120.037 22.799 119.973 23.1952 119.848 23.5625C119.721 23.931 119.542 24.2487 119.314 24.5193C119.084 24.7899 118.802 25.0001 118.469 25.1499C118.138 25.2997 117.766 25.3746 117.353 25.3746L116.876 25.3601L116.693 24.2306H116.96C117.616 24.2306 118.105 24.0892 118.428 23.8089Z"
            fill="#0C0C0C" />
        <path
            d="M121.443 21.461L121.582 22.5773H124.914C125.437 22.5773 125.834 22.4371 126.1 22.1557C126.367 21.8766 126.5 21.5432 126.5 21.1566C126.5 20.9427 126.456 20.7265 126.367 20.5042C126.279 20.2819 126.144 20.0741 125.966 19.8808L123.577 17.2568L122.862 18.0107L125.265 20.6347C125.385 20.77 125.447 20.9101 125.447 21.0551C125.447 21.1614 125.405 21.2556 125.32 21.3378C125.236 21.4199 125.11 21.461 124.94 21.461H121.443Z"
            fill="#0C0C0C" />
        <path fill-rule="evenodd" clip-rule="evenodd"
            d="M28.3148 13.8793C30.5 14.0439 34.9963 14.6695 35.5 15.8548C35.2531 18.4537 34.3667 24.3004 32.7963 26.8969C30.8333 30.1425 27.6111 33 22.5 33C17.3889 33 14.1667 30.1425 12.2037 26.8969C10.6333 24.3004 9.74691 18.4537 9.5 15.8548C10.0037 14.6695 14.5 14.0439 16.6852 13.8793C16.8951 13.2913 17.5889 11.6073 18.6852 9.5753C19.7815 7.54328 21.2037 7 22.5 7C23.7963 7 25.2185 7.54328 26.3148 9.5753C27.4111 11.6073 28.1049 13.2913 28.3148 13.8793ZM22.5 9.22252C23.2778 9.22252 24.1296 10.2809 24.463 10.8806C24.7296 11.3604 25.4259 12.9385 25.7222 13.6676H19.2778C19.5741 12.9385 20.2704 11.3604 20.537 10.8806C20.8704 10.2809 21.7222 9.22252 22.5 9.22252Z"
            fill="url(#paint0_linear_5374_79827)" />
        <path
            d="M54.5494 21.0253C54.5494 22.2332 55.5297 23.2136 56.7377 23.2136C57.9483 23.2136 58.9286 22.2332 58.9259 21.0253V10.1883C58.9259 8.98032 57.9456 8 56.7377 8C55.5297 8 54.5494 8.98032 54.5494 10.1883V21.0253Z"
            fill="black" />
        <path
            d="M71.9833 21.0654H76.3331C77.5304 21.0654 78.5027 22.035 78.5 23.235C78.5 24.4322 77.5277 25.4045 76.3304 25.4045H70.8905C69.0853 25.4045 67.6229 23.9421 67.6229 22.1368V12.3498C67.6229 11.1445 68.6005 10.1695 69.8031 10.1695C71.0084 10.1695 71.9833 11.1472 71.9833 12.3498V21.0654Z"
            fill="black" />
        <path
            d="M48.03 14.4925C48.03 13.2872 49.0077 12.3123 50.2103 12.3123C51.4129 12.3123 52.3905 13.2872 52.3879 14.4925V22.1368C52.3879 23.9421 50.9254 25.4045 49.1202 25.4045H43.6695C42.4723 25.4045 41.5 24.4322 41.5 23.235C41.5 22.0377 42.4723 21.0654 43.6695 21.0654H48.03V14.4925Z"
            fill="black" />
        <path
            d="M63.273 16.6541C62.0704 16.6541 61.0928 17.629 61.0928 18.8343V25.4072H56.7323C55.535 25.4072 54.5628 26.3795 54.5628 27.5767C54.5628 28.774 55.535 29.7463 56.7323 29.7463H62.1829C63.9882 29.7463 65.4506 28.2838 65.4506 26.4786V18.8343C65.4506 17.629 64.4757 16.6541 63.273 16.6541Z"
            fill="black" />
        <path
            d="M63.273 14.53C64.492 14.53 65.4801 13.5419 65.4801 12.323C65.4801 11.1041 64.492 10.116 63.273 10.116C62.0541 10.116 61.066 11.1041 61.066 12.323C61.066 13.5419 62.0541 14.53 63.273 14.53Z"
            fill="black" />
        <path
            d="M72.0396 29.7275C72.0396 30.9464 71.0515 31.9345 69.8326 31.9345C68.6136 31.9345 67.6255 30.9464 67.6255 29.7275C67.6255 28.5086 68.6136 27.5205 69.8326 27.5205C71.0515 27.5205 72.0396 28.5086 72.0396 29.7275Z"
            fill="black" />
    </g>
    <defs>
        <linearGradient id="paint0_linear_5374_79827" x1="22.5" y1="7" x2="22.5" y2="33"
            gradientUnits="userSpaceOnUse">
            <stop stop-color="#8FC345" />
            <stop offset="1" stop-color="#118F4E" />
        </linearGradient>
        <clipPath id="clip0_5374_79827">
            <rect width="135" height="40" fill="white" transform="translate(0.5)" />
        </clipPath>
    </defs>
</svg>