<svg width="350" height="200" viewBox="0 0 350 200" fill="none" xmlns="http://www.w3.org/2000/svg">
    <rect x="0.5" y="0.5" height="199" width="349" fill="#FAFAFA" />
    <rect x="0.5" y="0.5" height="199" width="349" stroke="#F0F0F0" />
    <path
        d="M202.3 61H147.7C144.6 61.0095 141.629 62.2448 139.437 64.437C137.245 66.6291 136.009 69.5999 136 72.7V107.254L151.132 92.1218C153.361 90 156.322 88.8166 159.4 88.8166C162.478 88.8166 165.438 90 167.668 92.1218L178.865 103.381L182.328 99.918C184.526 97.7324 187.5 96.5055 190.6 96.5055C193.7 96.5055 196.674 97.7324 198.872 99.918L214 115.054V72.7C213.991 69.5999 212.755 66.6291 210.563 64.437C208.371 62.2448 205.4 61.0095 202.3 61Z"
        fill="#F5F5F5" />
    <path
        d="M167.668 92.1212C165.438 89.9988 162.478 88.8154 159.4 88.8154C156.322 88.8154 153.361 89.9988 151.132 92.1212L136 107.253V127.299C136.009 130.4 137.245 133.37 139.437 135.562C141.629 137.755 144.6 138.99 147.7 138.999H202.3C203.873 138.998 205.43 138.68 206.877 138.063C208.325 137.447 209.634 136.545 210.724 135.412L167.668 92.1212Z"
        fill="#D9D9D9" />
    <path
        d="M214 115.045L198.871 99.9174C196.673 97.7318 193.7 96.5049 190.599 96.5049C187.5 96.5049 184.526 97.7318 182.327 99.9174L178.864 103.381L210.708 135.396C212.822 133.231 214.004 130.326 214 127.299V115.045Z"
        fill="#F0F0F0" />
</svg>