<svg width="350" height="200" viewBox="0 0 350 200" fill="none" xmlns="http://www.w3.org/2000/svg">
    <rect x="0.5" y="0.5" width="349" height="199" rx="15.5" fill="#FAFAFA" />
    <rect x="0.5" y="0.5" width="349" height="199" rx="15.5" stroke="#F0F0F0" />
    <path
        d="M655.294 102.584H563.711C558.511 102.6 553.528 104.672 549.851 108.349C546.174 112.026 544.101 117.009 544.086 122.209V180.168L569.468 154.786C573.207 151.227 578.173 149.242 583.336 149.242C588.499 149.242 593.464 151.227 597.204 154.786L615.985 173.672L621.794 167.863C625.481 164.197 630.47 162.139 635.669 162.139C640.869 162.139 645.857 164.197 649.544 167.863L674.919 193.251V122.209C674.904 117.009 672.831 112.026 669.154 108.349C665.477 104.672 660.494 102.6 655.294 102.584Z"
        fill="#F5F5F5" />
    <path
        d="M597.204 154.785C593.464 151.225 588.499 149.24 583.336 149.24C578.173 149.24 573.207 151.225 569.468 154.785L544.086 180.167V213.791C544.101 218.991 546.174 223.974 549.851 227.651C553.528 231.328 558.511 233.4 563.711 233.416H655.294C657.933 233.414 660.545 232.88 662.972 231.846C665.4 230.812 667.595 229.299 669.424 227.398L597.204 154.785Z"
        fill="#D9D9D9" />
    <path
        d="M674.918 193.238L649.543 167.863C645.856 164.197 640.868 162.139 635.668 162.139C630.469 162.139 625.48 164.197 621.793 167.863L615.984 173.672L669.397 227.373C672.943 223.742 674.925 218.868 674.918 213.792V193.238Z"
        fill="#F0F0F0" />
</svg>