<svg xmlns="http://www.w3.org/2000/svg" width="1048" height="458" fill="none"><path fill="#E2DDDB" d="m523.026 445.245-48.646-25.257 22.829 25.257h25.817ZM611.96 221.413v9.406l-40.567-9.406h40.567ZM720.178 350.879h29.964v5.223M720.178 274.426h29.964v5.213M720.178 221.413h29.964v5.223M720.178 168.409h29.964v5.214M828.307 128.628h3.24v29.86l-3.24-29.86ZM832.335 128.628h4.733v33.362h-4.637l-.096-33.362ZM557.979 162.872l163.963 2.105v-2.105H557.979ZM748.378 162.872l94.41 2.105v-2.105h-94.41ZM192.531 343.569v27.834l-34.934-29.86a23.378 23.378 0 0 0-24.541-3.659l-47.04 20.515v-4.28c0-1.249.463-2.436 1.267-3.336a4.957 4.957 0 0 1 1.72-1.258l45.258-19.903a36.076 36.076 0 0 1 6.768-2.219 36.003 36.003 0 0 1 7.957-.882c5.17 0 10.323 1.092 15.126 3.293.28.113.559.244.83.375l27.58 13.38h.009Z"/><path fill="#fff" d="M839.111 276.653v88.13h-34.497v-11.397h17.248v-73.589l8.786-7.162c3.389-2.76 8.463-.349 8.463 4.018Z"/><path fill="#fff" d="M821.862 288.364v10.454l-11.589 9.459-3.459 2.821c-2.087 1.703-5.223.209-5.223-2.481v-3.729l20.262-16.532.009.008ZM944.001 434.966a5.939 5.939 0 1 0 0-11.878 5.939 5.939 0 0 0 0 11.878ZM972.516 392.014v1.668h-11.729V380.73h.437c6.236 0 11.284 5.048 11.284 11.284h.008Z"/><path fill="#fff" d="M960.787 380.73v12.952h-10.978l-1.214-12.952h12.192ZM842.448 400.617v4.585h-20.585v-40.419h10.978v31.676l9.607 4.158ZM821.862 364.783v40.419c-12.812 0-23.187-10.376-23.187-23.188 0-6.829 2.952-12.978 7.659-17.231h15.528Z"/><path fill="#E2DDDB" d="m874.953 315.534 23.948 33.249h13.816l-37.764-33.249ZM719.112 427.333h31.948l2.759 7.24M702.79 435.455l68.445 9.729-3.703-9.729M228.854 58.244h-3.231v29.851l3.231-29.85ZM224.828 58.244h-4.724v33.353h4.637l.087-33.353ZM305.99 427.341l34.821 7.301-2.777-7.301M291.658 435.525l64.401 9.72-3.703-9.72M307.02 98.017h29.973v5.222M307.02 151.02h29.973v5.223M307.02 227.483h29.973v5.222M307.02 327.395h29.973v5.222"/><path fill="#F15B25" d="M529.497 321.342h-41.449v82.899h41.449v-82.899ZM724.5 151.431h16.018v-14.393h-9.607l-6.419 9.17v5.223h.008Zm1.354-4.795 5.773-8.253h7.546v11.694h-13.319v-3.449.008Z"/><path fill="#F15B25" d="M951.058 445.018a17.291 17.291 0 0 0 5.301-3.633 17.389 17.389 0 0 0 5.1-12.358c0-7.1-4.27-13.424-10.751-16.113h14.611c4.341 0 7.869-3.538 7.869-7.887v-10.672h.009v-2.341c0-6.594-5.371-11.956-11.974-11.956h-12.017l-1.712-18.262c-.698-7.554-6.952-13.249-14.55-13.249h-18.812l-42.096-37.082-8.698-7.668-1.005-.883-22.55-19.851v-6.419c0-2.288-1.283-4.323-3.345-5.293a5.837 5.837 0 0 0-6.227.743l-9.03 7.371v8.585l-20.017 16.332-.236.201v4.043c0 1.52.847 2.856 2.209 3.502a3.97 3.97 0 0 0 1.669.376c.882 0 1.746-.306 2.445-.873l2.358-1.931v42.996h-5.668v12.759h.734c-4.245 4.428-6.673 10.428-6.673 16.55 0 12.839 10.376 23.485 23.179 23.843v.026h21.939v-5.703l-9.607-4.157v-30.559h6.262v-58.628l7.589 9.502.882 1.118 7.398 9.249 18.742 23.458 1.004 1.258 7.048 8.829a15.003 15.003 0 0 0-.271 2.123l-2.786 49.886a17.236 17.236 0 0 0-7.563 4.454l-.113.096a22.95 22.95 0 0 0-.891.978 16.762 16.762 0 0 0-2.961 5.039 9.34 9.34 0 0 0-.341.944c-.27.829-.48 1.703-.628 2.672a7.95 7.95 0 0 0-.105.891 17.484 17.484 0 0 0 .838 7.345c.105.297.227.594.341.891a17.484 17.484 0 0 0 9.17 9.467H772.343l-4.061-10.673h-13.371l-3.092-8.113h-4.262v-23.45l-.009-45.563h3.703v-7.449h-3.685v-23.45l-.009-45.563h3.703v-7.458h-3.685v-23.45l-.009-22.096h3.703v-7.449h-3.703V174.75h3.703v-7.45h-2.646v-1.205h95.291v-4.332h-5.729v-34.236h-24.62v8.69l-61.982-54.855c.638-1.188.978-2.603.978-4.122 0-3.765-2.174-6.83-4.847-6.83-1.048 0-2.087.498-2.934 1.415h-.882c-.874-.926-1.895-1.415-2.943-1.415-2.664 0-4.839 3.065-4.839 6.838 0 1.441.315 2.813.9 3.965l-125.047 63.965H581.34l-31.336-.009-.227.227-.096.122-15.083 16.472-1.022 1.127h16.044l7.249.008v2.978h8.952v2.987h10.847v51.231h-6.385v21.039h42.812v-21.039h-6.567V169.09h10.847v-2.987h104.357v1.206h-2.646v7.449h3.685v45.563h-3.685v7.45h3.685v23.45l.009 22.104h-3.703v7.459h3.686v46.908l.008 22.104h-3.703v7.45h3.686v46.908l.009 22.104h-4.271l-3.092 8.114h-13.371l-4.078 10.672-127.004.018v-40.803h-41.449v40.803h-4.446l-51.204-26.472a19.444 19.444 0 0 0-8.856-2.157c-6.044 0-11.625 2.751-15.31 7.537l-8.943 11.598-12.978-6.978-5.738-23.021a6.1 6.1 0 0 0-5.922-4.629h-11.083l-7.781 12.794 8.183 4.393-.576.961c-.55.935-.699 2-.402 3.013a3.818 3.818 0 0 0 1.913 2.358l1.528.804v7.476l-8.76 12.279h-41.956l-4.043-10.611h-11.205l-3.118-8.184h-4.393v-92.479h3.703v-7.459h-3.703v-92.453h3.703v-7.45h-3.703v-69.003h3.703v-7.45h-3.703v-45.563h3.703v-7.45h-2.647v-1.205h92.821v2.987h6.419v142.697l-9.336 1.634.821 4.698.864 4.926.253 1.458.525 3.013.969 5.564.288 1.633 6.367 36.366 57.554-10.078-4.192-23.921-.821-4.699-.821-4.699-.83-4.698-.821-4.699-.821-4.681-.82-4.699-.97-5.563-9.45 1.651-.515.087V98.689h6.873v-2.987h78.541v-2.987h25.991l-16.104-17.598-.123-.122-.209-.227h-31.336l-60.402.026L320.19 10.751c.567-1.135.882-2.515.882-3.913 0-3.773-2.166-6.838-4.839-6.838-1.057 0-2.078.49-2.943 1.415h-.9C311.543.498 310.504 0 309.456 0c-2.673 0-4.847 3.065-4.847 6.83 0 .349.026.69.061 1.021l-61.048 52.183v-2.917h-24.628v34.236h-5.773v4.332h95.353v1.205h-2.655v7.45h3.703v45.563h-3.703v7.449h3.703v69.004h-3.703v7.45h3.703v92.453h-3.703v7.459h3.703v92.479h-4.393l-3.118 8.184h-11.205l-4.044 10.611h-42.951a17.364 17.364 0 0 0 9.545-9.459c.131-.297.236-.594.35-.89.585-1.625.908-3.345.978-5.127h20.48V419.35h-4.419l-.018-25.755-14.515-32.07c-3.502-7.738-11.257-12.742-19.764-12.742h-33.17v-11.912h-11.065v5.327l-26.856-13.022a38.033 38.033 0 0 0-16.454-3.781c-2.978 0-5.956.358-8.847 1.056a36.681 36.681 0 0 0-6.314 2.149l-45.266 19.904a5.709 5.709 0 0 0-1.773 1.214c-.385.349-.725.777-1.048 1.318a6.112 6.112 0 0 0-.83 3.083v20.673a6.089 6.089 0 0 0 3.65 5.598l15.529 6.838v36.428c0 3.231 2.629 5.869 5.86 5.869h4.524a17.429 17.429 0 0 0 10.847 15.484H0v12.952h1048v-12.952h-96.951l.009.009ZM806.395 310.591a2.453 2.453 0 0 1-1.581.568c-.375 0-.751-.087-1.091-.245a2.519 2.519 0 0 1-1.433-2.279v-3.406l18.9-15.432v8.716l-14.786 12.078h-.009Zm14.786-10.332v52.445h-10.227v-44.095l10.227-8.358v.008Zm0 104.253c-12.061-.358-21.834-10.402-21.834-22.507a22.595 22.595 0 0 1 7.249-16.55h14.585v39.057Zm20.576-3.45v3.467h-19.222v-39.074h9.624v31.45l9.589 4.157h.009Zm-3.327-36.952h-33.144v-10.052h17.249v-73.947l8.532-6.96a4.44 4.44 0 0 1 2.839-1.022c.672 0 1.327.148 1.947.445 1.59.751 2.568 2.314 2.568 4.079v87.457h.009ZM549.602 161.754h-12.986l12.986-14.174v14.174Zm18.716-84.558 12.97 14.166h-12.97V77.196Zm393.133 304.216c5.746.122 10.375 4.838 10.375 10.611v.987h-10.375V381.412Zm-1.345 0v11.598h-9.686l-1.092-11.598h10.778Zm-88.043-36.323-.882-1.118-22.568-28.236-.882-1.118-7.965-9.947v-19.79l20.891 18.401 1.004.882 50.41 44.402h-15.31c-.349 0-.681 0-.996.035-.078 0-.165 0-.227.008-.174.009-.358.035-.602.062-.393.043-.786.104-1.17.192a5.192 5.192 0 0 0-.577.139 5.085 5.085 0 0 0-.568.149 15.185 15.185 0 0 0-1.65.594 7.217 7.217 0 0 0-.472.209c-.201.096-.393.184-.585.28a9.743 9.743 0 0 0-.996.585l-.497.323c-.14.105-.297.218-.463.332-.297.236-.586.472-.891.725l-.411.393a14.47 14.47 0 0 0-2.506 3.179c-.114.175-.21.349-.28.498-.078.113-.131.236-.227.436-.043.088-.087.166-.113.245-.14.306-.288.629-.402.952l-.044.113a4.65 4.65 0 0 0-.157.446c-.017.052-.035.096-.052.148l-10.821-13.528.009.009Zm11.467 17.345c.035-.778.14-1.52.314-2.21.079-.393.184-.76.297-1.127a13.91 13.91 0 0 1 .865-2.087c.174-.332.367-.655.567-.969.193-.306.402-.62.638-.917.314-.437.664-.848 1.065-1.249 2.507-2.568 5.887-3.983 9.511-3.983h36.166c6.882 0 12.559 5.179 13.205 12.035l3.039 32.419h22.647v10.672a6.53 6.53 0 0 1-6.525 6.524h-84.523l2.751-49.126-.017.018Zm-14.184 72.933a8.828 8.828 0 0 1-.34-.864 16.284 16.284 0 0 1-.961-5.476c0-.515.026-1.066.096-1.668.026-.271.053-.568.114-.865.087-.637.227-1.284.419-1.912.07-.28.157-.542.245-.804l.043-.122a15.853 15.853 0 0 1 2.227-4.175c.28-.367.559-.725.865-1.074.227-.262.471-.515.725-.777 3.03-3.04 7.083-4.716 11.397-4.716h59.816c8.882 0 16.114 7.231 16.114 16.113a16.048 16.048 0 0 1-9.511 14.707v-14.707a6.61 6.61 0 0 0-6.603-6.603h-59.816a6.61 6.61 0 0 0-6.603 6.603 6.634 6.634 0 0 0 3.363 5.755 6.523 6.523 0 0 0 3.24.847h24.489v9.38h-26.576l-.175-.017c-.096-.009-.192-.026-.297-.044-5.397-.856-10.105-4.533-12.271-9.581Zm74.637-1.074a5.263 5.263 0 0 1-5.257-5.257c0-2.9 2.358-5.258 5.257-5.258 2.9 0 5.258 2.358 5.258 5.258a5.263 5.263 0 0 1-5.258 5.257Zm5.258-1.266v11.249c-.996.349-2.044.602-3.1.751h-5.695v-9.38h3.537c2.07 0 4.027-.987 5.258-2.611v-.009Zm-61.082 1.266a6.628 6.628 0 0 0 2.611-5.257 6.63 6.63 0 0 0-2.611-5.258h51.824a6.63 6.63 0 0 0-2.611 5.258c0 2.069.987 4.026 2.611 5.257h-51.824Zm50.934 1.345v9.38h-8.795v-9.38h8.795Zm-10.14 0v9.38h-8.795v-9.38h8.795Zm-10.157 0v9.38h-8.795v-9.38h8.795Zm-34.637-1.345a5.263 5.263 0 0 1-5.258-5.257c0-2.9 2.358-5.258 5.258-5.258a5.263 5.263 0 0 1 5.257 5.258 5.263 5.263 0 0 1-5.257 5.257Zm-51.52-305.421h4.166v32.891h-4.166v-32.891Zm-17.755 0h16.41v32.891h-16.41v-32.891Zm5.921 34.245h.437l21.292-.009v1.642h-93.946v-1.642h10.786l61.423.009h.008Zm-72.209-1.363v-2.402l10.786-11.772v14.174h-10.786Zm26.646-.786-13.633-14.463h27.258l-13.633 14.463h.008Zm14.516-13.423v14.209H776.36l13.398-14.209Zm-15.625 14.209h-13.397v-14.209l13.397 14.209Zm31.502-.786-13.633-14.454h21.546v6.044l-7.922 8.41h.009Zm7.922-6.437v7.223h-6.804l6.804-7.223Zm-9.031 7.223H791.12v-14.209l13.406 14.209Zm9.031-23.738v7.144h-53.773l-.227.227-.096.123-10.847 11.851v-23.118h-1.712v-26.462l.393-.393-.393-.393v-23.04c.253.062.524.114.812.114 1.127 0 2.227-.568 3.109-1.598l62.742 55.545h-.008Zm-81.895-3.773 3.467-13.938 10.428 10.436v3.494h-13.895v.008Zm10.297 1.345v31.703h-18.9v-21.546l7.118-10.157h11.791-.009Zm3.598-26.454v19.695l-9.843-9.843 9.843-9.843v-.009Zm-9.546 7.634 3.738-15.013 5.642 5.633-9.38 9.38Zm7.31 18.82h3.948v31.703h-3.948v-31.703Zm4.393-63.833c1.93 0 3.502 2.454 3.502 5.467 0 3.013-1.572 5.485-3.502 5.485-.27 0-.524-.044-.768-.131l-.035-.149V82.375l.227.192c.087-.017.174-.026.271-.061.078-.026.157-.061.235-.105l.166-.079c.114-.052.219-.104.315-.166.105-.06.201-.148.279-.218.131-.087.254-.183.376-.297.061-.06.105-.122.209-.262.131-.122.245-.27.341-.419.052-.07.087-.148.157-.27.114-.175.21-.35.297-.542l.122-.323c.079-.184.158-.376.21-.585l.035-.14a7.087 7.087 0 0 0 .253-1.887c0-2.55-1.301-4.777-3.083-5.31-.096-.026-.192-.052-.288-.07.218-.07.446-.104.681-.104v.026Zm-2.733 1.694-.061-.14-.062-.13h1.677c.175 0 .341.026.481.07 1.179.375 2.034 2.052 2.034 3.982 0 2.244-1.135 4.078-2.532 4.078h-1.677c.044-.078.087-.174.131-.27.533-1.1.803-2.41.803-3.79s-.279-2.7-.803-3.791l.009-.009Zm.576 9.214v22.987l-5.432-5.433 4.375-17.554h1.057Zm-4.611-10.908c.768 0 1.484.393 2.131 1.153.279.367.498.716.681 1.109.445.934.681 2.052.681 3.223 0 1.17-.227 2.244-.716 3.292-.157.35-.375.699-.646 1.022-.428.524-1.144 1.153-2.122 1.153-1.922 0-3.494-2.454-3.494-5.467 0-3.014 1.563-5.485 3.494-5.485h-.009ZM737.784 82.4c.882 1.074 2 1.668 3.162 1.668.664 0 1.336-.2 1.956-.594l-8.742 35.153-.376.358.236.218-3.755 15.039h-.804l-7.746 11.092v16.428h-4.07l-15.188-16.594h-31.336l-27.484.009 94.156-62.768-.009-.009Zm-21.965 79.353h-12.986V147.58l12.986 14.174Zm-42.471-15.249h27.258l-13.634 14.463-13.633-14.463h.009Zm12.515 15.249h-13.379v-14.201l13.379 14.201Zm15.625-14.209v14.209H688.09l13.398-14.209Zm-58.498-1.022h27.249l-13.624 14.454-13.616-14.454h-.009Zm12.498 15.24h-13.397v-14.21l13.397 14.21Zm15.624-14.201v14.201h-13.397l13.397-14.201Zm56.716-60.14-86.637 57.765h-26.34l112.977-57.764Zm-87.982 59.109-13.633 14.455-13.616-14.455h27.249Zm.891 1.022v14.21h-13.406l13.406-14.21Zm-29.039 0 13.406 14.21h-13.406v-14.21Zm-2.245-1.022-13.615 14.455-13.633-14.455h27.248Zm.891 1.022v14.21h-13.406l13.406-14.21Zm-29.021 0 13.397 14.21h-13.397v-14.21Zm-2.245-1.039-13.633 14.463-13.633-14.463H579.078Zm.882 1.039v14.21h-13.397l13.397-14.21Zm-23.117 14.227h-5.904v-14.227l13.397 14.21h-7.493v.017Zm54.864 59.895v18.34H571.62v-18.34h40.087Zm-33.72-1.345v-51.231h27.152v51.231h-27.152Zm38.008-52.576h-48.856v-1.642h48.856v1.642Zm-57.79-2.987v-1.624h163.492v1.624H558.205Zm162.191 8.655v-4.751h29.502v4.751h-29.502Zm4.655 24.795h21.152v21.152l-21.152-21.152Zm20.2 22.113h-21.152v-21.153l21.152 21.153Zm-21.152-23.458v-21.153l21.152 21.153h-21.152Zm.952-22.096h21.152v21.152l-21.152-21.152Zm-4.655 51.659v-4.751h29.502v4.751h-29.502Zm4.655 24.803h21.152v21.135l-21.152-21.135Zm20.183 22.087h-21.135V252.19l21.135 21.135Zm-21.135-23.449v-21.144l21.152 21.144h-21.152Zm.952-22.096h21.152v21.152l-21.152-21.152Zm-4.655 51.659v-4.769h29.502v4.769h-29.502Zm4.655 48.253h21.152v21.152l-21.152-21.152Zm20.183 22.104h-21.135v-21.153l21.135 21.153Zm-21.135-23.449v-21.153l21.152 21.153h-21.152Zm.952-22.114h21.152v21.153l-21.152-21.153Zm-.952-1.345v-21.152l21.152 21.152h-21.152Zm.952-22.104h21.152v21.152l-21.152-21.152Zm-4.655 75.099v-4.742h29.502v4.742h-29.502Zm4.655 48.271h21.152v21.152l-21.152-21.152Zm20.183 22.087h-21.135v-21.135l21.135 21.135Zm-21.135-23.45v-21.152l21.152 21.152h-21.152Zm.952-22.104h21.152v21.152l-21.152-21.152Zm-.952-1.345v-21.153l21.152 21.153h-21.152Zm.952-22.096h21.152v21.153l-21.152-21.153Zm-5.642 70.357h31.476l2.585 6.769h-36.646l2.585-6.769Zm-16.472 8.114h64.41l3.537 9.249h-71.475l3.537-9.249h-.009Zm-261.84 1.589 3.746 2.009v.681h1.11l.078-.035.402.21.646-1.179-.891-.48v-.385h-.235l-.437.026-3.572-1.921 8.803-11.432c3.433-4.446 8.62-6.996 14.227-6.996 2.847 0 5.695.69 8.236 2l48.838 25.24h-86.907l5.956-7.738Zm-24.646-34.969a4.718 4.718 0 0 1 4.244 3.572l5.45 21.834-18.856-10.113 9.162-15.293Zm-17.336 10.9 6.655-10.935h9.117l-8.786 14.681-6.986-3.746Zm7.851 10.052a2.44 2.44 0 0 1-1.24-1.528 2.493 2.493 0 0 1 .253-1.948l.612-1.013 33.301 17.869-6.455 8.384h-10.41v-13.354l-16.07-8.401.009-.009Zm2.262 9.913v-7.206l12.463 6.524v12.533h-20.917l8.454-11.851Zm62.366-198.252-7.589 1.327-9.441 1.66-9.45 1.65-9.065 1.59V98.715h35.545V234.95Zm-12.733 7.974.524-.096.349 1.982.315 1.843-.455.079-8.113 1.432-.332-1.878-.34-1.956 3.851-.681 4.192-.725h.009Zm9.118 17.755 4.139-.725.332 1.852.35 1.982-4.149.725-.672-3.825v-.009Zm1.091-1.092-.96.166-.315-1.851-.349-1.965.961-.175 7.624-1.336.341 1.982.331 1.852-3.851.681-3.773.655-.009-.009Zm-1.781-4.524-4.716.821-.341-1.912-.332-1.913 1.301-.236 2.551-.445 4.716-.83.34 1.921.332 1.913-3.851.681Zm-29.834-3.563 3.851-.681 3.773-.655.952-.166.332 1.851.349 1.965-.899.166-7.686 1.337-.34-1.965-.332-1.852Zm14.838 1.345-4.314.751-.411.07-.349-1.983-.314-1.842.454-.079 8.113-1.432.332 1.851.341 1.983-3.852.681Zm4.009.183 3.834-.663.891-.149.34 1.913.341 1.912-3.869.682-4.637.812h-.079l-.332-1.895-.341-1.913 3.852-.681v-.018Zm-9.162 1.599 4.437-.769.332 1.913.34 1.912-1.03.184-3.406.594-.673-3.834Zm14.708 2.262 4.262-.734.454-.079.34 1.965.332 1.852-.454.079-8.113 1.432-.341-1.922-.332-1.912 3.852-.681Zm.89-5.896-.995.175-4.734.83-.34-1.983-.332-1.851 3.851-.664 1.878-.332 2.856-.506.314 1.851.35 1.983-2.856.489.008.008Zm-2.646-9.205-4.716.821-.34-1.912-.332-1.913 8.576-1.511.341 1.921.331 1.913-3.851.681h-.009Zm-9.441 1.651-3.642.629-1.091.201-.332-1.922-.341-1.912 8.585-1.503.332 1.913.341 1.913-3.852.681Zm-.725 1.022.35 1.956.332 1.878-3.852.664-4.733.829-.332-1.877-.341-1.957 2.847-.489 1.005-.175 4.716-.829h.008Zm-6.314.209-2.41.42-4.717.829-.401-2.235-.271-1.59 8.576-1.502.341 1.912.332 1.922-1.441.244h-.009Zm-3.537 1.52.41-.079.341 1.957.332 1.877-3.852.682-3.423.594-1.301.218-.105-.559-.577-3.258 3.869-.681 4.306-.751Zm37.432 16.733-3.852.664-.349-1.965-.314-1.851 3.851-.681 3.773-.655.952-.166.332 1.851.341 1.965-4.717.83-.017.008Zm-5.493-8.716-.341-1.912-.341-1.922 3.852-.663 3.703-.655 1.03-.175.332 1.913.341 1.921-.472.079-8.104 1.414Zm-.83-4.698-4.253.751-.472.078-.349-1.982-.315-1.852.411-.069 8.166-1.433.332 1.878.34 1.948-3.851.681h-.009Zm-5.537-3.869-1.651.279-3.083.551-.314-1.852-.35-1.983.961-.165 7.625-1.337.34 1.983.332 1.843-3.851.681h-.009Zm-30.707-3.406.34 1.921.341 1.913-3.869.664-4.507.794-.209.035-.664-3.834 8.576-1.502-.008.009Zm-3.232 9.345-3.851.681-.664-3.834 3.851-.664.664 3.817Zm56.078 14.366-8.585 1.511-.663-3.834 3.851-.681 4.498-.786.236-.035.663 3.817v.008Zm-.821-4.681-3.851.664-.349-1.983-.332-1.842.995-.175 2.874-.507.663 3.834v.009Zm-.829-4.698-2.446.436-1.406.236-4.716.83-.332-1.852-.34-1.982 3.851-.664 2.262-.402 2.463-.437.664 3.835Zm-.821-4.699-2.236.402-1.616.279-.332-1.921-.34-1.913.882-.148 2.978-.524.664 3.834v-.009Zm-.821-4.699-3.424.594-.436.079-4.716.821-.35-1.948-.332-1.878 3.869-.681 1.511-.271 3.205-.559.664 3.834.009.009Zm-1.485-8.515.664 3.817-2.288.41-1.572.271-.332-1.852-.341-1.982 2.673-.472 1.179-.201.017.009Zm-.821-4.699.664 3.834-3.852.664-3.772.664-.961.166-.332-1.922-.341-1.912 8.585-1.502.009.008Zm-8.629 6.35 4.717-.83.349 1.982.332 1.852-.419.07-8.166 1.432-.315-1.843-.349-1.982 3.851-.681Zm-.148-.865-.454.079-8.114 1.414-.34-1.912-.341-1.922 8.585-1.502.332 1.913.341 1.921-.009.009Zm5.057-142.104H429.63v-1.641h48.838v1.641Zm88.488-5.973h-13.397l13.397-14.201v14.2Zm-.882-15.24L552.45 90.576l-13.634-14.454h27.258Zm-28.14 1.022 13.398 14.209h-13.398v-14.21Zm-2.244-1.022-13.624 14.454-13.625-14.454h27.258-.009Zm.882 1.022v14.209h-13.397l13.397-14.21Zm-29.022 0 13.398 14.209H507.55v-14.21Zm-2.244-1.022-13.633 14.454-13.616-14.454h27.249Zm.891 1.022v14.209h-13.406l13.406-14.21Zm-29.039 0 13.406 14.209h-13.406v-14.21ZM557 92.715v1.625H335.438v-1.625H557Zm-215.675-1.362 12.986-14.175v14.175h-12.986Zm28.847-.786-13.616-14.454h27.249L370.18 90.567h-.008Zm14.515-13.415v14.2h-13.398l13.398-14.2Zm-15.616 14.2h-13.406V77.144l13.406 14.21Zm31.476-.785-13.616-14.454h27.249l-13.624 14.454h-.009Zm14.515-13.423v14.209h-13.397l13.397-14.21Zm-15.624 14.209h-13.38v-14.2l13.38 14.2Zm31.502-.786-13.633-14.454h27.257L430.94 90.567Zm14.515-13.423v14.209h-13.397l13.397-14.21Zm-15.624 14.209h-13.398v-14.21l13.398 14.21Zm16.978 0v-14.21l13.405 14.21h-13.405Zm29.03 0h-13.406l13.406-14.21v14.21Zm-14.515-.786-13.625-14.454h27.249l-13.616 14.454h-.008Zm11.266-15.8-25.72.027-111.912-56.523L472.59 74.777v-.01Zm-28.76 0h-57.763l-31.336-.008-15.205 16.594h-4.053V74.925l-7.755-11.091h-.804l-3.738-15.048.21-.21-.349-.35-8.751-35.152c.62.393 1.292.594 1.973.594 1.179 0 2.315-.611 3.206-1.73l124.392 62.83h-.027ZM311.613 63.843V60.35l10.437-10.437 3.458 13.939h-13.895v-.009Zm2.245 1.345V96.89h-3.948V65.187h3.948Zm7.607-16.611-9.861 9.843V38.725l9.861 9.851Zm-9.677-11.598 5.633-5.633 3.738 15.013-9.371-9.38Zm3.415 28.2h11.799l7.1 10.158V96.88h-18.899V65.178Zm-1.756-61.64c.192-.394.411-.735.655-1.023.358-.436 1.109-1.17 2.14-1.17 1.921 0 3.476 2.463 3.476 5.485 0 3.021-1.563 5.467-3.476 5.467-.97 0-1.694-.629-2.14-1.153a5.176 5.176 0 0 1-.681-1.1c-.445-.935-.681-2.053-.681-3.214 0-1.162.227-2.245.716-3.293h-.009Zm-.777 8.715 4.375 17.555-5.432 5.432V12.253h1.057Zm-2.018-9.484h1.677a4.128 4.128 0 0 0-.131.262c-.532 1.109-.812 2.419-.812 3.799s.28 2.69.812 3.79c0 0 .114.227.14.27h-1.686c-1.397 0-2.532-1.825-2.532-4.078 0-1.93.856-3.607 2.035-3.982.157-.053.314-.07.489-.07l.008.009Zm-1.196-1.415c.236 0 .463.035.681.105a3.653 3.653 0 0 0-.297.07c-1.781.532-3.074 2.76-3.074 5.31 0 .628.087 1.266.253 1.895l.227-.062-.201.201c.07.227.158.446.271.708.018.06.044.122.07.2.061.132.14.263.21.385l.096.157c.035.053.07.114.157.262.114.149.218.28.323.393l.227.27c.114.114.245.21.367.289l.096.079c.061.052.122.104.192.148.088.053.175.096.262.131l.219.105c.078.035.157.079.244.105.087.026.175.043.271.052l.131.026a2.213 2.213 0 0 1-.725.114c-1.921 0-3.493-2.463-3.493-5.485 0-3.022 1.563-5.467 3.493-5.467v.009Zm-65.834 74.759h21.546l-13.633 14.454-7.921-8.402v-6.043l.008-.01Zm22.428 1.022v14.21h-13.397l13.397-14.21Zm-22.428 6.995 6.804 7.223h-6.804V84.13Zm-17.755-25.668h16.393v32.89h-16.393v-32.89Zm-5.528 0h4.166v32.89h-4.166v-32.89Zm88.217 35.878h-93.981v-1.642h21.091l31.511.009h.236l41.143-.01v1.643Zm-26.628-3.773-13.633-14.454h27.248l-13.615 14.454Zm14.498-13.423v14.209h-13.38l13.38-14.21ZM280.81 91.353h-13.397v-14.21l13.397 14.21Zm27.746 0h-10.777V77.187l10.777 11.773v2.393Zm-10.829-16.236-.123-.148-.2-.218h-53.782V61.799L304.967 9.37c.734 2.576 2.506 4.288 4.489 4.288.244 0 .507-.035.803-.113v23.039l-.393.393.393.393v26.462h-1.694v23.118l-10.838-11.834Zm9.537 27.869v-4.751h29.502v4.751h-29.502Zm25.799 25.755v21.153H311.91l21.153-21.153Zm-22.105 20.183v-21.152h21.153l-21.153 21.152Zm.952-22.497 21.153-21.153v21.153H311.91Zm-.952-.952v-21.153h21.153l-21.153 21.153Zm-3.703 30.515v-4.751h29.502v4.751h-29.502Zm25.799 49.205v21.152h-21.153l21.153-21.152Zm-22.105 20.2v-21.152h21.153l-21.153 21.152Zm.952-22.506 21.153-21.153v21.153h-21.153Zm-.952-.952v-21.153h21.153l-21.153 21.153Zm.952-22.497 21.153-21.153v21.153h-21.153Zm-.952-.952v-21.153h21.153l-21.153 21.153Zm-3.703 53.964v-4.751h29.502v4.751h-29.502Zm25.799 72.655v21.143h-21.152l21.152-21.143Zm-22.104 20.2v-21.152h21.152l-21.152 21.152Zm.952-22.497 21.152-21.153v21.153h-21.152Zm-.952-.952v-21.153h21.152l-21.152 21.153Zm.952-22.498 21.152-21.153v21.153h-21.152Zm-.952-.961v-21.152h21.152l-21.152 21.152Zm.952-22.497 21.152-21.153v21.153h-21.152Zm-.952-.952v-21.153h21.152l-21.152 21.153Zm-3.703 77.414v-4.742h29.502v4.742h-29.502Zm25.799 72.663v21.153h-21.153l21.153-21.153Zm-22.105 20.192v-21.153h21.153l-21.153 21.153Zm.952-22.498 21.153-21.152v21.152h-21.153Zm-.952-.96v-21.153h21.153l-21.153 21.153Zm.952-22.498 21.153-21.152v21.152h-21.153Zm-.952-.952v-21.152h21.153l-21.153 21.152Zm.952-22.497 21.153-21.153v21.153h-21.153Zm-.952-.952v-21.153h21.153l-21.153 21.153Zm-4.812 72.689h31.72l2.594 6.83h-36.917l2.594-6.83h.009Zm-14.323 8.175h60.366l3.52 9.248h-67.415l3.52-9.248h.009Zm-39.406-1.249a17.18 17.18 0 0 1-.341.864c-2.585 5.817-8.358 9.581-14.716 9.581a16.088 16.088 0 0 1-14.707-9.589 9 9 0 0 1-.358-.856 15.746 15.746 0 0 1-1.013-5.633c0-.507.026-1.005.07-1.503.026-.288.061-.576.104-.864 1.031-6.961 6.393-12.384 13.337-13.52.288-.043.576-.078.873-.105a14.102 14.102 0 0 1 1.703-.104c8.873 0 16.096 7.222 16.096 16.096a15.77 15.77 0 0 1-1.031 5.633h-.017Zm-99.685-5.633c0-8.874 7.214-16.096 16.079-16.096 8.864 0 16.096 7.222 16.096 16.096 0 8.873-7.223 16.078-16.096 16.078-8.874 0-16.079-7.214-16.079-16.078Zm9.502 16.148h-23.772a17.432 17.432 0 0 0 10.847-15.485h2.096a17.427 17.427 0 0 0 10.829 15.485Zm24-15.485h33.712a16.61 16.61 0 0 0 .969 5.127 17.342 17.342 0 0 0 9.895 10.358h-55.423c6.314-2.568 10.594-8.62 10.838-15.485h.009Zm-81.484-43.467-15.65-6.89a4.78 4.78 0 0 1-2.848-4.376v-20.672c0-1.179.437-2.306 1.214-3.179a4.706 4.706 0 0 1 1.625-1.197l45.266-19.912a36.81 36.81 0 0 1 6.725-2.201 35.594 35.594 0 0 1 7.903-.882c5.223 0 10.28 1.1 15.04 3.275.279.113.541.244.821.384l27.44 13.31v41.485l-27.44 13.309a37.174 37.174 0 0 1-7.773 2.734 37.533 37.533 0 0 1-4.026.672c-.332.044-.682.079-1.022.105-.673.061-1.336.096-2.009.105-.367.009-.734.018-1.109.018-3.415 0-6.812-.489-10.087-1.45a27.564 27.564 0 0 1-1.808-.585 78.38 78.38 0 0 1-.9-.323 28.314 28.314 0 0 1-1.773-.725l-29.336-12.917-.279-.096.026.008Zm10.768 36.804a8.151 8.151 0 0 0-.262.777l.228.061-.262.061-.245.847c-.061.245-.122.489-.157.734-.061.288-.122.568-.157.847-.053.28-.079.542-.105.804l.236.017-.254.131c-.026.271-.035.533-.043.786-.018.079-.018.157-.027.236h-4.515c-2.489 0-4.506-2.026-4.506-4.524v-35.834l28.62 12.585c.314.131.62.271.925.376.524.227 1.048.41 1.581.602.393.14.777.271 1.162.393.611.192 1.214.367 1.825.516.611.148 1.223.297 1.851.436l.926.175c1.04.183 1.957.314 2.804.402.515.043 1.03.096 1.537.113.367.026.716.035 1.057.044.122.009.27.009.393.009h.244c.07.008.131.008.192.008h.446c.209.009.419.009.594-.008.393 0 .794-.009 1.187-.035a14 14 0 0 0 1.075-.07h.209l.245-.035c.279-.026.576-.044.873-.079.183-.026.367-.043.559-.061.288-.044.568-.078.865-.113.471-.079.925-.158 1.388-.245l.14-.026a33.393 33.393 0 0 0 1.485-.315c.524-.113 1.03-.244 1.528-.393a33.929 33.929 0 0 0 3.319-1.1c.672-.262 1.327-.542 1.982-.821.332-.14.655-.297.978-.463l28.21-13.677v-47.824h8.34v62.637h1.372v-50.725h33.178c7.974 0 15.249 4.69 18.524 11.948l14.419 31.798v26.83h4.419v7.458H254.74c0-.157 0-.323-.026-.454v-.305c-.035-.236-.061-.49-.105-.612v-.192a2.939 2.939 0 0 0-.096-.594 1.513 1.513 0 0 0-.07-.428 6.887 6.887 0 0 0-.087-.454 25.869 25.869 0 0 0-.166-.716l-.192-.655c-.035-.105-.061-.201-.096-.315a6.533 6.533 0 0 0-.253-.689 2.997 2.997 0 0 0-.184-.472 8.94 8.94 0 0 0-.637-1.362c-.062-.158-.149-.315-.227-.463l-.088-.158a16.105 16.105 0 0 0-1.048-1.633 3.834 3.834 0 0 0-.279-.375 9.999 9.999 0 0 0-.603-.751 11.242 11.242 0 0 0-.515-.586c-.192-.2-.384-.41-.577-.576a8.555 8.555 0 0 0-.576-.55 10.495 10.495 0 0 0-.751-.629l-.559-.428a17.284 17.284 0 0 0-8.699-3.292 14.902 14.902 0 0 0-1.598-.088c-.568 0-1.109.026-1.572.079-.061 0-.131 0-.183.009-.297.026-.594.061-.9.104a17.314 17.314 0 0 0-7.624 3.162 5.495 5.495 0 0 0-.559.428c-.262.201-.516.41-.76.629a8.22 8.22 0 0 0-.559.541 7.19 7.19 0 0 0-.576.585 6.399 6.399 0 0 0-.524.585c-.219.245-.42.489-.612.751-.078.097-.14.184-.279.376a16.416 16.416 0 0 0-1.057 1.642l-.087.157a2.923 2.923 0 0 0-.219.437c-.227.419-.445.891-.637 1.362-.079.149-.14.323-.175.463a6.061 6.061 0 0 0-.271.751l-.131.411-.157.532c-.061.236-.122.472-.166.708a4.985 4.985 0 0 0-.078.437c-.044.139-.07.296-.07.419a4.978 4.978 0 0 0-.088.515c-.008.07-.026.14-.017.175-.026.139-.035.288-.052.428l-.018.201c-.009.139-.026.27-.026.393-.009.165-.026.34-.018.454v.017h-33.694c0-.07-.008-.131-.017-.209a7.562 7.562 0 0 0-.061-.804c0-.052 0-.131-.009-.175a12.733 12.733 0 0 0-.105-.794c-.035-.28-.096-.568-.157-.865-.052-.245-.114-.489-.201-.838-.061-.254-.131-.498-.201-.743l-.227.07.175-.192a6.41 6.41 0 0 0-.297-.873c-.087-.236-.175-.481-.28-.708-.104-.244-.227-.506-.34-.751a10.258 10.258 0 0 0-.393-.76 12.504 12.504 0 0 0-.411-.725 8.552 8.552 0 0 0-.358-.567l-.201-.297a7.092 7.092 0 0 0-.401-.55 17.526 17.526 0 0 0-.498-.647c-.122-.139-.253-.297-.376-.436a17.002 17.002 0 0 0-1.982-1.922 12.318 12.318 0 0 0-.489-.393 7.942 7.942 0 0 0-.847-.594c-.158-.122-.315-.218-.472-.314a15.613 15.613 0 0 0-.97-.568 8.07 8.07 0 0 0-.759-.393 17.24 17.24 0 0 0-5.957-1.633 12.898 12.898 0 0 0-1.598-.087c-.585 0-1.1.026-1.589.087a17.245 17.245 0 0 0-8.69 3.284 6.552 6.552 0 0 0-.559.428c-.262.201-.507.41-.769.637-.192.175-.375.358-.559.533-.166.149-.314.306-.471.472l-.105.113a9.899 9.899 0 0 0-.515.577c-.219.244-.42.489-.603.751-.079.105-.148.201-.279.375-.42.568-.76 1.109-1.04 1.634a8.133 8.133 0 0 0-.323.602c-.244.454-.454.917-.629 1.363a3.032 3.032 0 0 0-.192.471 9.075 9.075 0 0 0-.253.716 2.812 2.812 0 0 0-.122.428c-.062.175-.105.35-.158.533-.069.245-.131.48-.174.716a5.42 5.42 0 0 0-.079.437c-.044.14-.061.297-.078.428-.035.192-.07.41-.097.69a7.66 7.66 0 0 0-.078.725c-.009.104-.026.209-.026.288-.018.174-.027.34-.018.463v.017h-2.087c0-.148-.009-.314-.026-.454 0-.105-.009-.21-.035-.402a2.845 2.845 0 0 0-.079-.524v-.183c-.009-.201-.052-.419-.087-.612l-.018-.122c-.017-.105-.026-.209-.052-.288-.018-.14-.052-.271-.096-.445-.026-.184-.079-.376-.131-.568l-.044-.166a6.043 6.043 0 0 0-.148-.515 4.56 4.56 0 0 0-.131-.454c-.07-.228-.157-.472-.288-.804-.053-.131-.105-.262-.149-.358a10.778 10.778 0 0 0-.629-1.371c-.061-.149-.14-.28-.218-.419l-.105-.192a13.958 13.958 0 0 0-1.048-1.625 2.366 2.366 0 0 0-.175-.253l-.139-.192a8.796 8.796 0 0 0-.568-.69l-.087-.096c-.149-.166-.289-.324-.481-.533-.174-.184-.349-.376-.515-.533a17.571 17.571 0 0 0-.576-.55c-.254-.218-.498-.428-.778-.646a17.116 17.116 0 0 0-9.231-3.695 12.898 12.898 0 0 0-1.598-.087c-.585 0-1.101.026-1.59.087-2.07.184-4.07.734-5.956 1.642a10.86 10.86 0 0 0-.751.393c-.332.175-.673.367-.97.568a3.816 3.816 0 0 0-.462.306 8.267 8.267 0 0 0-.734.515l-.122.096a7.264 7.264 0 0 0-.489.393 16.395 16.395 0 0 0-1.983 1.921l-.393.446-.489.629a6.442 6.442 0 0 0-.358.506l-.245.367a7.265 7.265 0 0 0-.34.55c-.14.236-.28.472-.428.725-.131.253-.262.498-.376.751-.113.21-.209.437-.297.655l-.043.105c-.079.166-.14.332-.201.498l-.123.297v.07Zm.289 6c0-8.874 7.214-16.096 16.078-16.096 8.865 0 16.096 7.222 16.096 16.096 0 8.873-7.223 16.078-16.096 16.078-8.873 0-16.078-7.214-16.078-16.078Zm930.849 27.755H1.319v-10.262h880.665c.725.096 1.441.14 2.201.14h59.816c.76 0 1.502-.053 2.192-.14h100.457v10.262h-.02Z"/><path fill="#F15B25" d="M570.721 335.019v1.354h9.921v5.432l-9.686 3.476v58.96h41.45v-73.833l-9.694 3.476v-7.869h9.921v-1.354h-9.921v-9.013h9.921v-1.354h-9.921v-9.013h9.921v-1.353h-9.921v-9.013h9.921v-1.354h-9.921v-9.013h9.921v-1.354h-9.921v-9.013h9.921v-1.354h-9.921v-9.921h-1.354v9.921h-9.013v-9.921h-1.354v9.921h-9.013v-9.921h-1.354v9.921h-9.921v1.354h9.921v9.013h-9.921v1.354h9.921v9.013h-9.921v1.354h9.921v9.013h-9.921v1.353h9.921v9.013h-9.921v1.354h9.921v9.013h-9.921v1.354h9.921v9.013h-9.921l.018-.009Zm19.327-20.725h-7.1l3.554-3.546 3.555 3.546h-.009Zm-7.1-9.013h7.1l-3.555 3.546-3.554-3.546h.009Zm4.506 4.507 3.546-3.555v7.101l-3.546-3.555v.009Zm12.952 4.506h-7.1l3.554-3.546 3.555 3.546h-.009Zm-7.1-9.013h7.1l-3.555 3.546-3.554-3.546h.009Zm4.506 4.507 3.546-3.555v7.101l-3.546-3.555v.009Zm3.546-27.528-3.546-3.555 3.546-3.555v7.11Zm-.952.952h-7.1l3.554-3.555 3.555 3.555h-.009Zm0-9.013-3.555 3.545-3.554-3.545h7.109Zm-8.052.951 3.554 3.555-3.554 3.555v-7.11Zm0 9.407h9.013v9.013h-9.013v-9.013Zm0 10.358h9.013v9.013h-9.013v-9.013Zm0 11.309 3.554 3.555-3.554 3.555v-7.11Zm0 9.407h9.013v9.013h-9.013v-9.013Zm0 10.357h9.013v8.35l-1.826.655h-7.179v-9.013l-.008.008Zm3.414 10.358-3.414 1.223v-1.223h3.414ZM591 282.242l-3.546-3.554 3.546-3.555v7.109Zm-.952.952h-7.1l3.554-3.554 3.555 3.554h-.009Zm0-9.013-3.555 3.546-3.554-3.546h7.109Zm-8.052.952 3.554 3.555-3.554 3.554v-7.109Zm0 9.406h9.013v9.013h-9.013v-9.013Zm0 10.358h9.013v9.013h-9.013v-9.013Zm0 11.31 3.554 3.555-3.554 3.554v-7.109Zm0 9.406h9.013v9.013h-9.013v-9.013Zm0 10.358h9.013v9.013h-9.013v-9.013Zm9.013 10.358v1.712l-9.013 3.231v-4.943h9.013ZM453.56 436.267h-1.354v1.878h1.354v-1.878ZM460.127 439.97h-1.354v1.878h1.354v-1.878ZM460.389 435.568h-1.353v1.878h1.353v-1.878ZM463.21 426.232h-1.353v1.878h1.353v-1.878ZM467.271 431.202h-1.354v1.877h1.354v-1.877ZM468.677 438.564h-1.354v1.878h1.354v-1.878ZM471.499 433.612h-1.354v1.878h1.354v-1.878ZM477.175 437.857h-1.354v1.877h1.354v-1.877ZM480.415 431.603h-1.354v1.878h1.354v-1.878ZM486.091 434.861h-1.353v1.878h1.353v-1.878ZM492.144 438.8h-1.353v1.877h1.353V438.8ZM495.166 434.162h-1.353v1.878h1.353v-1.878ZM501.568 440.677h-1.353v1.878h1.353v-1.878ZM430.415 395.874a4.953 4.953 0 0 0-2.532-2.856 5.007 5.007 0 0 0-2.175-.506 5.038 5.038 0 0 0-4.498 2.803 4.95 4.95 0 0 0-.227 3.817 4.987 4.987 0 0 0 2.524 2.865c.69.34 1.424.506 2.183.506.551 0 1.101-.096 1.625-.271a4.968 4.968 0 0 0 2.847-2.506l1.362.664.594-1.214-1.528-.743a4.911 4.911 0 0 0-.175-2.541v-.018Zm-3.537 5.066a3.686 3.686 0 0 1-1.188.201 3.49 3.49 0 0 1-1.589-.376 3.622 3.622 0 0 1-1.843-2.087c-.306-.882-.262-1.834.166-2.751l6.533 3.187a3.56 3.56 0 0 1-2.079 1.817v.009Zm-3.633-6.105a3.672 3.672 0 0 1 2.48-.969c.551 0 1.075.122 1.572.366a3.617 3.617 0 0 1 1.843 2.088c.157.471.219.96.175 1.476l-6.061-2.961h-.009ZM148.985 336.504c.804 0 1.633.035 2.446.105 3.161.279 6.366 1.196 9.528 2.724l22.201 10.76.585-1.214-22.201-10.76c-3.31-1.606-6.672-2.567-10-2.855a28.042 28.042 0 0 0-2.567-.114c-3.887 0-7.677.795-11.249 2.367L94.811 356.39l.541 1.24 42.917-18.873a26.475 26.475 0 0 1 10.708-2.253h.008ZM139.588 428.861c0-4.245-3.459-7.703-7.703-7.703-4.245 0-7.703 3.458-7.703 7.703 0 4.244 3.458 7.703 7.703 7.703 4.244 0 7.703-3.459 7.703-7.703Zm-14.053 0a6.355 6.355 0 0 1 6.35-6.349 6.355 6.355 0 0 1 6.349 6.349 6.355 6.355 0 0 1-6.349 6.349 6.355 6.355 0 0 1-6.35-6.349ZM176.513 428.861c0-4.245-3.458-7.703-7.703-7.703-4.244 0-7.703 3.458-7.703 7.703 0 4.244 3.459 7.703 7.703 7.703 4.245 0 7.703-3.459 7.703-7.703Zm-14.052 0a6.355 6.355 0 0 1 6.349-6.349 6.355 6.355 0 0 1 6.35 6.349 6.355 6.355 0 0 1-6.35 6.349 6.355 6.355 0 0 1-6.349-6.349ZM237.351 421.158a7.58 7.58 0 0 0-1.782.21c-.305.069-.62.165-.908.27a7.73 7.73 0 0 0-4.603 4.751 9.939 9.939 0 0 0-.253.909 7.953 7.953 0 0 0-.157 1.563c0 2.271.996 4.419 2.742 5.895a7.27 7.27 0 0 0 1.354.908c1.1.586 2.349.9 3.607.9a7.708 7.708 0 0 0 3.607-.9 8.006 8.006 0 0 0 1.432-.978c.245-.209.481-.445.708-.69a7.742 7.742 0 0 0 1.956-5.126c0-4.245-3.459-7.703-7.703-7.703v-.009Zm5.022 11.581a5.592 5.592 0 0 1-.638.707 5.866 5.866 0 0 1-1.231.926 6.311 6.311 0 0 1-3.153.838 6.311 6.311 0 0 1-3.153-.838 6.368 6.368 0 0 1-3.196-5.511c0-.507.061-.996.183-1.467a4.41 4.41 0 0 1 .262-.847 6.375 6.375 0 0 1 3.389-3.52c.27-.122.55-.21.856-.288a5.777 5.777 0 0 1 1.659-.227 6.355 6.355 0 0 1 6.349 6.349c0 1.423-.463 2.76-1.327 3.878ZM256.705 386.04l-9.266-20.48a11.998 11.998 0 0 0-10.9-7.022h-15.764v36.821h35.947l-.017-9.319Zm-26.227 7.965-.603-6.061a3.816 3.816 0 0 1 3.817-4.209 3.821 3.821 0 0 1 3.686 2.829l1.283 4.9-.882-.349-3.773-5.188-1.091.795 4.008 5.502 4.516 1.773h-10.952l-.009.008Zm24.899 0h-6.305l1.345-2.864-1.223-.577-1.616 3.441-2.41.018-4.961-1.948-1.537-5.86c-.611-2.253-2.655-3.834-4.987-3.834a4.84 4.84 0 0 0-.786.061 5.167 5.167 0 0 0-4.366 5.642l.593 5.921h-6.995v-34.122h14.41c4.157 0 7.956 2.446 9.668 6.236l9.17 20.21v7.676Z"/><path fill="#F15B25" d="M237.893 372.573a4.947 4.947 0 0 0-1.764-1.834 4.968 4.968 0 0 0-2.568-.725 5.004 5.004 0 0 0-4.855 6.192 4.972 4.972 0 0 0 6.043 3.642 4.987 4.987 0 0 0 3.074-2.262 4.944 4.944 0 0 0 .577-3.746l1.467-.367-.323-1.31-1.651.41Zm-5.222-1.1a3.74 3.74 0 0 1 .882-.105c.655 0 1.301.184 1.877.524.428.253.786.603 1.083 1.022l-6.55 1.616c.192-1.468 1.275-2.708 2.716-3.057h-.008Zm3.991 5.415a3.618 3.618 0 0 1-2.245 1.65 3.661 3.661 0 0 1-2.759-.419 3.613 3.613 0 0 1-1.642-2.218l7.065-1.747c.227.935.07 1.904-.428 2.725l.009.009ZM932.953 359.403h-36.166c-1.982 0-3.642 1.563-3.764 3.555l-2.175 39.1h49.52l-3.677-39.24a3.747 3.747 0 0 0-3.747-3.415h.009Zm-18.786 33.03-6.716 1.834.358 1.302 6.358-1.738v6.864h-13.354l4.734-3.93 1.109 2.218 1.205-.602-4.297-8.62-1.205.602 2.577 5.153-6.227 5.17h-6.428l2.104-37.667c.079-1.284 1.145-2.288 2.411-2.288h17.38v31.685l-.009.017Zm1.354 8.262v-7.24l3.615-1.013 7.642-6.934-.908-.996-6.332 5.799 1.467-5.563a3.81 3.81 0 0 1 4.262-2.786 3.826 3.826 0 0 1 3.232 4.166l-1.485 14.558h-11.493v.009Zm12.847 0 1.476-14.419a5.175 5.175 0 0 0-5.171-5.703c-2.323 0-4.366 1.581-4.978 3.834l-1.86 7.022-2.314.637v-31.318h17.441a2.41 2.41 0 0 1 2.401 2.192l3.529 37.755h-10.524Z"/><path fill="#F15B25" d="M925.748 368.862c-.131-.009-.262-.018-.393-.018-1.188 0-2.34.419-3.24 1.188a4.946 4.946 0 0 0-1.441 2.096l-1.694-.131-.105 1.345 1.502.122a4.953 4.953 0 0 0 1.179 3.598 4.951 4.951 0 0 0 3.398 1.738c.131.009.27.018.401.018 2.585 0 4.769-2.018 4.97-4.594a4.968 4.968 0 0 0-1.179-3.633 4.957 4.957 0 0 0-3.406-1.738l.008.009Zm-2.76 2.2a3.601 3.601 0 0 1 2.359-.873 3.604 3.604 0 0 1 2.777 1.275c.323.376.559.821.699 1.31l-6.734-.533c.218-.462.524-.864.899-1.187v.008Zm2.367 6.411c-.096 0-.201 0-.297-.009a3.608 3.608 0 0 1-2.48-1.266c-.611-.708-.917-1.607-.856-2.62l7.249.576c-.166 1.869-1.747 3.328-3.616 3.328v-.009ZM316.644 66.637v14.401h16.018v-5.222l-6.42-9.18h-9.607.009Zm14.673 13.048h-13.319V67.99h7.546l5.773 8.253v3.45-.01Z"/></svg>