<svg xmlns="http://www.w3.org/2000/svg" width="703" height="140" fill="none"><path fill="#fff" d="M389.17 89.14c0 8.17-4.12 14.42-12.59 19.11l-22.09 12.24 6.19 11.18 22.09-12.23c12.55-7 19.18-17.43 19.18-30.3v-61h-12.78v61ZM367.1 70.78V29.87h-63v12.79h50.25v28.12c0 14.94-15.26 16.55-21.82 16.55h-32.9v12.81h32.9c21 0 34.6-11.52 34.6-29.34M459.74 27.38h-36.69l-4.77 43.42a25 25 0 0 0 7.12 21.47 27.38 27.38 0 0 0 19.27 7.65 28.93 28.93 0 0 0 4.54-.35l22.559-3.49c-.82 4.16-3.56 7.31-8.75 10.19l-25.659 14.21 6.199 11.18 25.651-14.21c10.07-5.58 15.3-13.45 15.59-23.38V50.2c0-14.08-9.611-22.82-25.081-22.82M472 83.14l-24.781 3.84a14.996 14.996 0 0 1-12.879-3.76 12.208 12.208 0 0 1-3.43-10.7l3.559-32.32H459.7c12.3 0 12.3 7 12.3 10v32.94ZM267.39 87.98h-16.65a8.22 8.22 0 0 1-8.21-8.22V52.57h-12.78v22.47c0 2.9-.78 6.59-6.84 9.45-4 1.91-9.89 3-15.68 3-4.38 0-18.66-.92-18.66-12.86v-43.3h-44V72.8c0 4.17-1.15 7.32-3.49 9.65-3.51 3.48-10 5.37-18.4 5.27l-86.22-.8c-6.83-.06-12.77-1.31-16.75-3.51-3.98-2.2-5.8-5.16-5.82-9.36l-.12-44.47H.98l.12 44.48c.08 15.6 13.58 25.41 35.24 25.6l86.23.81h.6c11.68 0 21-3.1 26.9-9 4.83-4.78 7.28-11.08 7.28-18.73v-28.6h18.46V74.7c0 15.34 12.63 25.65 31.44 25.65 4.53 0 13.29-.56 21.15-4.27a29.216 29.216 0 0 0 5.7-3.53 20.998 20.998 0 0 0 16.66 8.24h29.44V28.14h-12.79l-.02 59.84Z"/><path fill="#fff" d="M107.09 31.33H51.1v12.78h55.99V31.33ZM468.18 3.8 466.9 0l-35.05 8.75 1.27 3.8 35.06-8.75ZM669.2.67h-31.65v107.62h31.65V.67ZM605.89 44.99h-31.65v63.31h31.65V44.99ZM637.55 108.3H605.9v31.65h31.65V108.3ZM574.24.67h-44.31v44.32h44.31V.67ZM683.71 14.38V3.74h-3.99v-.96h9.07v.96h-3.99v10.64h-1.09ZM690.73 14.38V2.78h2.14l3.61 10.97h.2l3.62-10.97h2.13v11.6h-1.06V3.41h-.2l-3.62 10.97h-1.94L692 3.41h-.21v10.97h-1.06Z"/></svg>