<svg xmlns="http://www.w3.org/2000/svg" width="176" height="50" fill="none"><path fill="#466473" d="M85.674 19.668c0 1.803-.91 3.182-2.786 4.218l-4.873 2.701 1.367 2.466 4.874-2.698c2.77-1.535 4.233-3.846 4.233-6.687V6.208h-2.815v13.46ZM80.8 15.619V6.59H66.892v2.834h11.087v6.208c0 3.291-3.367 3.65-4.81 3.65h-7.262v2.801h7.262c4.638 0 7.633-2.532 7.633-6.472M101.245 6.039h-8.102l-1.054 9.583a5.521 5.521 0 0 0 1.573 4.74 6.04 6.04 0 0 0 4.253 1.688c.335 0 .67-.027 1-.078l4.981-.76c-.183.92-.788 1.613-1.935 2.248l-5.653 3.127 1.367 2.466 5.661-3.137c2.221-1.23 3.375-2.967 3.438-5.16v-9.679c0-3.107-2.119-5.038-5.534-5.038m2.714 12.3-5.469.845a3.32 3.32 0 0 1-2.843-.83 2.702 2.702 0 0 1-.76-2.36l.785-7.132h5.57c2.714 0 2.714 1.552 2.714 2.215v7.261h.003ZM58.798 19.414H55.12a1.815 1.815 0 0 1-1.81-1.813v-6h-2.83v4.957c0 .638-.17 1.453-1.507 2.086a8.568 8.568 0 0 1-3.461.67c-.967 0-4.12-.204-4.12-2.837V6.91H31.68v9.153c0 .92-.253 1.615-.76 2.13-.775.759-2.213 1.184-4.05 1.162l-19.03-.178c-1.507 0-2.819-.288-3.695-.76-.876-.47-1.28-1.141-1.286-2.065L2.83 6.539H.01l.028 9.816c.015 3.444 2.995 5.606 7.775 5.649l19.03.177h.131c2.578 0 4.629-.684 5.938-1.982 1.066-1.056 1.605-2.446 1.605-4.133v-6.33h4.064v6.746c0 3.385 2.785 5.659 6.94 5.659.997 0 2.931-.122 4.666-.942.45-.21.875-.47 1.266-.778a4.629 4.629 0 0 0 3.676 1.818h6.492V6.212H58.8l-.003 13.202Z"/><path fill="#466473" d="M23.423 6.913H11.067v2.82h12.356v-2.82ZM103.107.838 102.826 0l-7.735 1.93.28.837 7.736-1.929ZM4.4 37.176h.542c.033 0 .081.04.081.362 0 .321-.048.344-.08.344h-.568c-.648 0-1.013-.223-1.34-1.012l-.739.351c-1.05.507-1.354.955-1.354 1.644 0 .797.468 1.16 1.592 1.16h1.75l-.066.706H2.486c-1.519 0-2.225-.626-2.225-1.793 0-.944.468-1.691 1.772-2.279l1.52-.688c-.198-.585-.37-.76-.953-.76H.66l.092-.714h1.962c.945 0 1.365.395 1.636 1.757l-.772.337c.187.453.41.585.838.585"/><path fill="#466473" d="M5.86 36.569v-4h.688v4.007c0 .82-.542 1.307-1.347 1.307h-.253c-.033 0-.084-.026-.084-.345 0-.319.05-.362.084-.362H5.2a.6.6 0 0 0 .658-.607ZM9.592 37.527c0 .319-.04.344-.081.344h-.213c-.845 0-1.266-.534-1.266-1.438v-3.876h.671V36.4c0 .507.205.76.626.76h.18c.04 0 .08.033.08.362"/><path fill="#466473" d="M10.825 37.527c0 .337-.05.344-.083.344h-1.23c-.034 0-.084-.032-.084-.344 0-.311.05-.362.083-.362h1.23c.034 0 .084.04.084.362Z"/><path fill="#466473" d="M12.057 37.527c0 .337-.048.344-.08.344h-1.234c-.033 0-.08-.032-.08-.344 0-.311.047-.362.08-.362h1.233c.033 0 .081.04.081.362Z"/><path fill="#466473" d="M13.288 37.527c0 .337-.049.344-.081.344h-1.233c-.033 0-.081-.032-.081-.344 0-.311.048-.362.08-.362h1.234c.032 0 .08.04.08.362Z"/><path fill="#466473" d="M14.528 37.527c0 .337-.05.344-.083.344h-1.23c-.034 0-.084-.032-.084-.344 0-.311.05-.362.083-.362h1.23c.034 0 .084.04.084.362Z"/><path fill="#466473" d="M15.752 37.527c0 .337-.049.344-.082.344h-1.232c-.033 0-.082-.032-.082-.344 0-.311.049-.362.082-.362h1.232c.033 0 .082.04.082.362Z"/><path fill="#466473" d="M16.983 37.527c0 .337-.05.344-.083.344h-1.233c-.033 0-.081-.032-.081-.344 0-.311.048-.362.08-.362H16.9c.033 0 .084.04.084.362Z"/><path fill="#466473" d="M17.992 36.516V35.25h.684v1.266c0 .337.121.506.352.582 1.035-1.848 1.848-2.58 2.76-2.58.91 0 1.551.699 1.551 1.694a1.58 1.58 0 0 1-.195.795c.218.152.484.217.747.182h.188c.033 0 .083.033.083.362 0 .33-.05.345-.083.345h-.183c-.552 0-.855-.084-1.126-.37a1.773 1.773 0 0 1-1.15.37h-2.192c-.593 0-.945-.165-1.117-.486-.198.329-.56.486-1.076.486h-.33c-.032 0-.083-.026-.083-.345 0-.319.05-.362.084-.362h.329c.491 0 .76-.253.76-.65m4.666-.327a.931.931 0 0 0-.92-1.013c-.625 0-1.24.633-2.025 1.988h1.902c.666 0 1.043-.378 1.043-.978"/><path fill="#466473" d="M24.849 36.65v-.337c0-1.051.59-1.692 1.567-1.692s1.519.583 1.519 1.659c0 1.012-.585 1.602-1.544 1.602-.575 0-.963-.182-1.153-.506-.18.352-.465.506-.977.506h-.187c-.033 0-.084-.025-.084-.344 0-.319.05-.362.084-.362h.187c.395 0 .585-.172.585-.527m1.544-1.339c-.584 0-.863.33-.863 1.013a.79.79 0 0 0 .863.863c.568 0 .861-.288.861-.896 0-.608-.278-.97-.86-.97M40.221 35.25v1.266c0 .863-.544 1.372-1.397 1.372-.567 0-.912-.182-1.059-.506a1.19 1.19 0 0 1-1.086.506.923.923 0 0 1-.729-.238v.099c-.025 1.266-.93 2.142-2.236 2.142h-.362c-1.387 0-2.152-.846-2.152-2.279V36.06h.684v1.534c0 1.036.506 1.585 1.486 1.585h.344c.937 0 1.552-.582 1.552-1.519v-2.41h.684v1.306c0 .378.228.633.73.633.5 0 .771-.253.771-.648V35.25h.681v1.291c0 .41.23.648.692.648.46 0 .714-.238.714-.648V35.25h.683Zm-3.516-1.633h2.17v.648h-2.17v-.648Zm1.46-.479h-.746v-.648h.746v.648ZM42.523 39.885H41.51l-.066-.707h1.084c.879 0 1.438-.506 1.446-1.296h-.82c-1.143 0-1.593-.461-1.593-1.438 0-1.036.64-1.742 1.56-1.742.919 0 1.536.683 1.536 1.772v1.134c0 1.406-.838 2.279-2.137 2.279m.674-2.71h.78v-.64c0-.76-.312-1.142-.894-1.142-.506 0-.838.41-.838 1.013 0 .557.238.76.952.76M46.767 37.645v-2.396h.683v1.307c0 .403.238.633.689.633h.106c.033 0 .084.04.084.362s-.05.344-.084.344h-.106a.866.866 0 0 1-.689-.28v.098c-.025 1.332-.878 2.185-2.152 2.185h-.23l-.066-.706h.279c.929 0 1.486-.568 1.486-1.535"/><path fill="#466473" d="M50.116 37.143c-.886-.33-1.175-.659-1.175-1.292a1.535 1.535 0 0 1 1.577-1.56c1.013 0 1.585.649 1.585 1.773v.279c0 1.012-.696 1.544-2.01 1.544h-1.848c-.033 0-.084-.025-.084-.344 0-.32.05-.362.084-.362h1.453c.14.003.28-.008.418-.033m1.306-.846v-.197c0-.747-.319-1.117-.919-1.117a.869.869 0 0 0-.878.853c0 .527.319.798 1.501 1.183a.882.882 0 0 0 .296-.722Zm-1.38-3.545h.871v.684h-.87v-.684ZM56.366 39.885h-1.013l-.066-.707h1.084c.878 0 1.438-.506 1.445-1.296h-.82c-1.142 0-1.595-.461-1.595-1.438 0-1.036.64-1.742 1.562-1.742s1.535.683 1.535 1.772v1.134c0 1.406-.838 2.279-2.135 2.279m.674-2.71h.787v-.64c0-.76-.311-1.142-.896-1.142-.507 0-.836.41-.836 1.013 0 .557.238.76.952.76M64.153 36.733c0-.238-.154-.65-.911-2.686l.633-.289.962 2.727c.172.494.352.691.747.691h.172c.04 0 .08.04.08.362s-.04.345-.08.345h-.198c-.49 0-.82-.157-1.013-.52-.205.363-.534.52-1.035.52h-1.922l-.066-.707h1.988c.387 0 .64-.19.64-.443"/><path fill="#466473" d="M69.09 35.25v1.339c0 .82-.541 1.306-1.346 1.306h-1.98c-.033 0-.081-.025-.081-.344 0-.319.048-.362.08-.362h1.98a.59.59 0 0 0 .659-.608V35.25h.689Zm-1.076 4.337h-2.17v-.656h2.17v.656ZM70.902 37.645v-2.396h.684v1.307c0 .403.238.633.689.633h.106c.033 0 .084.04.084.362s-.051.344-.084.344h-.106a.866.866 0 0 1-.689-.28v.098c-.025 1.332-.881 2.185-2.152 2.185h-.218l-.066-.706h.279c.929 0 1.486-.568 1.486-1.535"/><path fill="#466473" d="M74.828 36.732 76.076 36c-.172-.6-.443-.79-1.033-.79H73.12l.091-.714h1.947c.978 0 1.406.436 1.717 1.735l-1.724 1.066a3.662 3.662 0 0 1-2.218.584h-.552c-.033 0-.081-.025-.081-.344 0-.319.048-.362.08-.362h.578a3.333 3.333 0 0 0 1.871-.443Zm-.673-3.879h.87v.684h-.87v-.684ZM79.448 39.885h-.228l-.066-.706h.279c.926 0 1.486-.565 1.486-1.534v-2.396h.681v2.408c0 1.388-.878 2.241-2.152 2.241M84.565 37.527c0 .319-.04.344-.084.344h-.212c-.846 0-1.266-.534-1.266-1.438v-3.876h.683V36.4c0 .507.205.76.623.76h.18c.043 0 .084.033.084.362"/><path fill="#466473" d="M86.181 39.574h-2.167v-.656h2.167v.656Zm1.643-2.046c0 .33-.048.355-.08.355h-.254c-.484 0-.83-.157-.985-.486a1.118 1.118 0 0 1-1.028.486h-.985c-.033 0-.08-.026-.08-.345 0-.319.047-.362.08-.362h.985c.42 0 .699-.23.699-.607v-1.32h.681v1.314c0 .41.23.626.658.626h.23c.034 0 .082.033.082.352"/><path fill="#466473" d="M91.066 37.529c0 .329-.048.354-.08.354h-.254c-.483 0-.828-.157-.985-.486a1.116 1.116 0 0 1-1.028.486h-.985c-.032 0-.08-.025-.08-.344 0-.32.047-.363.08-.363h.978c.42 0 .698-.23.698-.607v-1.32h.682v1.315c0 .413.23.625.658.625h.23c.033 0 .081.033.081.352m-2.965-3.924h2.17v.648h-2.17v-.648Z"/><path fill="#466473" d="M92.298 37.527c0 .337-.049.344-.082.344h-1.225c-.033 0-.08-.032-.08-.344 0-.311.047-.362.08-.362h1.233c.033 0 .081.04.081.362"/><path fill="#466473" d="M93.522 37.527c0 .337-.048.344-.081.344h-1.233c-.033 0-.081-.032-.081-.344 0-.311.048-.362.08-.362h1.234c.033 0 .081.04.081.362Z"/><path fill="#466473" d="M94.76 37.527c0 .337-.05.344-.083.344h-1.23c-.033 0-.084-.032-.084-.344 0-.311.05-.362.084-.362h1.23c.033 0 .084.04.084.362Z"/><path fill="#466473" d="M96.083 36.516v-1.267h.689v1.267c0 .412.23.65.731.65.502 0 .76-.253.76-.65v-1.267h.681v1.267c0 .412.238.65.699.65.461 0 .706-.238.706-.65v-1.267h.681v1.267c0 .863-.541 1.372-1.387 1.372-.567 0-.912-.182-1.069-.507a1.165 1.165 0 0 1-1.076.507c-.607 0-.952-.182-1.109-.507a1.164 1.164 0 0 1-1.076.507h-.64c-.033 0-.081-.026-.081-.345 0-.319.048-.362.08-.362h.641c.494 0 .76-.253.76-.65M103.904 33.743l1.577 1.815c.301.292.478.69.491 1.109 0 .706-.506 1.215-1.435 1.215h-2.342l-.066-.706h2.408c.483 0 .759-.205.759-.507a1.056 1.056 0 0 0-.337-.663l-1.534-1.772.479-.491ZM2.415 47.027h3.327c.033 0 .081.032.081.362 0 .329-.048.344-.08.344h-.854c.087.109.13.246.122.385 0 .954-.871 1.62-2.226 1.62h-.633C.765 49.738 0 48.89 0 47.46v-1.552h.681v1.535c0 1.035.506 1.585 1.489 1.585h.615c1.013 0 1.545-.345 1.545-.894 0-.296-.14-.428-.461-.428h-1.52l.066-.678Z"/><path fill="#466473" d="M6.593 47.733h-.856c-.03 0-.08-.025-.08-.344 0-.32.05-.362.08-.362h.856a.595.595 0 0 0 .666-.608v-1.332h.686v1.34c0 .82-.542 1.306-1.347 1.306m.099-4.304h.87v.681h-.87v-.681ZM10.902 47.402c0 .319-.041.344-.082.344h-.212c-.846 0-1.266-.534-1.266-1.438v-3.876h.68v3.843c0 .507.206.76.626.76h.18c.04 0 .081.033.081.362"/><path fill="#466473" d="M11.593 46.501v-.336c0-1.051.59-1.692 1.567-1.692.978 0 1.52.583 1.52 1.659v.23c0 .476.197.666.567.666h.205c.033 0 .083.033.083.362 0 .33-.05.344-.083.344h-.205c-.469 0-.78-.157-.927-.526a1.37 1.37 0 0 1-1.185.526c-.575 0-.96-.182-1.15-.506-.18.352-.468.506-.977.506h-.187c-.033 0-.084-.025-.084-.344 0-.319.051-.362.084-.362h.187c.395 0 .585-.172.585-.527Zm1.542-1.339c-.582 0-.86.33-.86 1.013a.791.791 0 0 0 .86.863c.567 0 .864-.288.864-.896 0-.608-.28-.97-.864-.97"/><path fill="#466473" d="M16.764 47.402c0 .337-.048.345-.08.345H15.45c-.033 0-.08-.033-.08-.345 0-.311.047-.362.08-.362h1.233c.033 0 .081.04.081.362Z"/><path fill="#466473" d="M17.997 47.402c0 .337-.05.345-.08.345h-1.234c-.033 0-.083-.033-.083-.345 0-.311.05-.362.083-.362h1.233c.03 0 .081.04.081.362Z"/><path fill="#466473" d="M19.227 47.402c0 .337-.048.345-.08.345h-1.234c-.033 0-.081-.033-.081-.345 0-.311.048-.362.081-.362h1.233c.033 0 .081.04.081.362Z"/><path fill="#466473" d="M20.46 47.402c0 .337-.05.345-.084.345h-1.233c-.032 0-.08-.033-.08-.345 0-.311.048-.362.08-.362h1.233c.034 0 .084.04.084.362Z"/><path fill="#466473" d="M21.69 47.402c0 .337-.048.345-.08.345h-1.234c-.033 0-.081-.033-.081-.345 0-.311.048-.362.081-.362h1.24c.034 0 .082.04.082.362"/><path fill="#466473" d="M22.921 47.402c0 .337-.048.345-.081.345h-1.223c-.033 0-.08-.033-.08-.345 0-.311.047-.362.08-.362h1.233c.033 0 .081.04.081.362"/><path fill="#466473" d="M24.15 47.402c0 .337-.051.345-.084.345h-1.23c-.033 0-.084-.033-.084-.345 0-.311.05-.362.084-.362h1.23c.033 0 .084.04.084.362Z"/><path fill="#466473" d="M25.385 47.402c0 .337-.048.345-.08.345H24.07c-.033 0-.08-.033-.08-.345 0-.311.047-.362.08-.362h1.233c.033 0 .081.04.081.362Z"/><path fill="#466473" d="M26.617 47.402c0 .337-.05.345-.083.345H25.3c-.033 0-.081-.033-.081-.345 0-.311.048-.362.08-.362h1.234c.033 0 .083.04.083.362Z"/><path fill="#466473" d="M27.849 47.402c0 .337-.05.345-.084.345h-1.23c-.033 0-.084-.033-.084-.345 0-.311.05-.362.084-.362h1.23c.033 0 .084.04.084.362Z"/><path fill="#466473" d="M29.079 47.402c0 .337-.049.345-.081.345h-1.233c-.033 0-.081-.033-.081-.345 0-.311.048-.362.08-.362h1.234c.032 0 .08.04.08.362Z"/><path fill="#466473" d="M30.312 47.402c0 .337-.051.345-.084.345h-1.23c-.033 0-.084-.033-.084-.345 0-.311.05-.362.084-.362h1.228c.033 0 .083.04.083.362"/><path fill="#466473" d="M31.543 47.402c0 .337-.05.345-.081.345h-1.236c-.033 0-.083-.033-.083-.345 0-.311.05-.362.083-.362h1.233c.03 0 .081.04.081.362"/><path fill="#466473" d="M32.772 47.402c0 .337-.048.345-.08.345h-1.234c-.033 0-.081-.033-.081-.345 0-.311.048-.362.081-.362h1.233c.033 0 .081.04.081.362Z"/><path fill="#466473" d="M34.006 47.402c0 .337-.05.345-.084.345h-1.23c-.033 0-.084-.033-.084-.345 0-.311.051-.362.084-.362h1.23c.033 0 .084.04.084.362Z"/><path fill="#466473" d="M35.237 47.402c0 .337-.048.345-.081.345h-1.233c-.033 0-.081-.033-.081-.345 0-.311.048-.362.08-.362h1.234c.033 0 .08.04.08.362Z"/><path fill="#466473" d="M36.47 47.402c0 .337-.05.345-.084.345h-1.233c-.033 0-.08-.033-.08-.345 0-.311.047-.362.08-.362h1.233c.033 0 .084.04.084.362Z"/><path fill="#466473" d="M37.7 47.402c0 .337-.051.345-.084.345h-1.23c-.034 0-.084-.033-.084-.345 0-.311.05-.362.083-.362h1.23c.034 0 .084.04.084.362Z"/><path fill="#466473" d="M38.93 47.402c0 .337-.048.345-.08.345h-1.234c-.033 0-.08-.033-.08-.345 0-.311.047-.362.08-.362h1.233c.033 0 .081.04.081.362Z"/><path fill="#466473" d="M42.185 47.38c0 .33-.051.354-.084.354h-.253c-.486 0-.83-.157-.985-.486a1.116 1.116 0 0 1-1.028.486h-.985c-.033 0-.083-.025-.083-.344 0-.319.05-.362.083-.362h.998c.418 0 .699-.23.699-.608V45.09h.68v1.314a.573.573 0 0 0 .656.625h.23c.034 0 .084.033.084.352m-2.965-3.924H41.4v.655h-2.168v-.655Z"/><path fill="#466473" d="m44.546 46.584 1.248-.732c-.172-.6-.443-.79-1.033-.79H42.84l.09-.714h1.946c.977 0 1.405.436 1.717 1.735l-1.724 1.068a3.678 3.678 0 0 1-2.218.582h-.55c-.033 0-.083-.025-.083-.344 0-.319.05-.362.083-.362h.575a3.332 3.332 0 0 0 1.871-.443Zm-.673-3.879h.87v.684h-.87v-.684ZM49.31 47.402c0 .319-.041.344-.084.344h-.213c-.846 0-1.266-.534-1.266-1.438v-3.876h.684v3.843c0 .507.205.76.622.76h.18c.043 0 .084.033.084.362"/><path fill="#466473" d="M50.631 46.39v-1.292h.689v1.291c0 .41.23.649.731.649.502 0 .76-.254.76-.649V45.1h.681v1.29c0 .41.238.649.699.649.46 0 .706-.238.706-.649V45.1h.681v1.265c0 .864-.542 1.372-1.387 1.372-.567 0-.912-.182-1.069-.506a1.168 1.168 0 0 1-1.076.506c-.607 0-.952-.182-1.109-.506a1.167 1.167 0 0 1-1.076.506h-.645c-.033 0-.081-.025-.081-.344 0-.319.048-.362.08-.362h.641c.507 0 .76-.253.76-.648M64.589 45.087v1.355c0 .805-.542 1.291-1.34 1.291h-2.94c-.987 0-1.453-.567-1.453-1.42v-1.226h.681v1.134c0 .507.239.806.813.806h2.9a.594.594 0 0 0 .657-.6v-1.34h.682Zm-3.96-1.34h2.17v.651h-2.17v-.65ZM66.663 42.419h-.68v5.314h.68v-5.314ZM69.94 47.028h.107c.033 0 .081.04.081.362 0 .321-.048.344-.08.344h-.107a.876.876 0 0 1-.691-.28v.098c-.026 1.332-.879 2.187-2.153 2.187h-.574l-.066-.708h.625c.927 0 1.487-.565 1.487-1.535v-2.408h.68v1.302c0 .402.239.633.692.633m-1.52-3.606h.872v.694h-.871v-.694Z"/><path fill="#466473" d="M72.116 49.428h-2.17v-.656h2.17v.656Zm1.83-2.046c0 .329-.047.354-.08.354h-.254c-.483 0-.83-.157-.984-.486a1.117 1.117 0 0 1-1.028.486h-1.552c-.033 0-.081-.025-.081-.344 0-.32.048-.362.08-.362H71.6c.42 0 .698-.23.698-.608V45.09h.681v1.314c0 .41.23.626.659.626h.23c.033 0 .081.033.081.352"/><path fill="#466473" d="M75.177 47.402c0 .337-.05.345-.084.345h-1.23c-.033 0-.084-.033-.084-.345 0-.311.051-.362.084-.362h1.23c.033 0 .084.04.084.362Z"/><path fill="#466473" d="M76.408 47.402c0 .337-.048.345-.081.345h-1.233c-.033 0-.081-.033-.081-.345 0-.311.048-.362.08-.362h1.234c.033 0 .08.04.08.362Z"/><path fill="#466473" d="M77.64 47.402c0 .337-.05.345-.083.345h-1.23c-.033 0-.084-.033-.084-.345 0-.311.05-.362.084-.362h1.23c.033 0 .084.04.084.362Z"/><path fill="#466473" d="M78.871 47.402c0 .337-.05.345-.08.345h-1.234c-.033 0-.083-.033-.083-.345 0-.311.05-.362.083-.362h1.233c.03 0 .081.04.081.362Z"/><path fill="#466473" d="M80.103 47.402c0 .337-.048.345-.081.345h-1.233c-.033 0-.081-.033-.081-.345 0-.311.048-.362.081-.362h1.233c.033 0 .081.04.081.362Z"/><path fill="#466473" d="M81.334 47.402c0 .337-.05.345-.083.345h-1.23c-.034 0-.085-.033-.085-.345 0-.311.051-.362.084-.362h1.23c.034 0 .084.04.084.362Z"/><path fill="#466473" d="M82.564 47.402c0 .337-.048.345-.081.345H81.25c-.033 0-.081-.033-.081-.345 0-.311.048-.362.08-.362h1.234c.033 0 .081.04.081.362Z"/><path fill="#466473" d="M83.798 47.402c0 .337-.05.345-.084.345h-1.233c-.032 0-.08-.033-.08-.345 0-.311.048-.362.08-.362h1.233c.033 0 .084.04.084.362Z"/><path fill="#466473" d="M85.028 47.402c0 .337-.05.345-.083.345h-1.23c-.034 0-.084-.033-.084-.345 0-.311.05-.362.083-.362h1.23c.034 0 .084.04.084.362Z"/><path fill="#466473" d="M86.26 47.402c0 .337-.049.345-.082.345h-1.233c-.033 0-.08-.033-.08-.345 0-.311.047-.362.08-.362h1.236c.033 0 .08.04.08.362"/><path fill="#466473" d="M87.492 47.402c0 .337-.05.345-.084.345H86.18c-.033 0-.083-.033-.083-.345 0-.311.05-.362.083-.362h1.23c.034 0 .084.04.084.362"/><path fill="#466473" d="M92.51 47.402c0 .32-.05.345-.083.345-.714 0-1.013.139-1.314.731l-.674 1.239h-.377c-1.175 0-1.889-.664-1.889-1.872v-.098h-.76c-.032 0-.083-.026-.083-.345 0-.319.05-.362.084-.362h.76v-.878c0-1.094.582-1.773 1.518-1.773.904 0 1.471.56 1.471 1.454 0 1.068-.962 1.856-2.316 1.88v.1c0 .83.402 1.215 1.207 1.215l.507-.92c.476-.863.87-1.075 1.863-1.075.033 0 .084.033.084.362m-2.818-2.327c-.542 0-.838.387-.838 1.086v.879c1.012 0 1.635-.443 1.635-1.16a.73.73 0 0 0-.797-.805Z"/><path fill="#466473" d="M93.27 44.35h1.947c.977 0 1.405.435 1.716 1.734l-.648.395a.76.76 0 0 0 .82.55h.542c.033 0 .084.04.084.361 0 .322-.05.344-.084.344h-.58c-.647 0-.984-.222-1.306-.936l-.564.354a3.684 3.684 0 0 1-2.218.582h-.552c-.033 0-.081-.025-.081-.344 0-.319.048-.362.08-.362h.59a3.337 3.337 0 0 0 1.874-.443l1.248-.732c-.172-.6-.443-.79-1.035-.79h-1.922l.089-.714Zm.689 4.42h.87v.689h-.87v-.689Z"/><path fill="#466473" d="M99.157 45.089h.683v1.339c0 .82-.544 1.306-1.35 1.306h-.852c-.033 0-.081-.025-.081-.344 0-.319.048-.362.08-.362h.854a.596.596 0 0 0 .666-.608V45.09Zm.937-.985h-2.168v-.648h2.18l-.012.648ZM104.098 49.739h-1.013l-.065-.709h1.083c.881 0 1.438-.506 1.446-1.296h-.82c-1.142 0-1.593-.461-1.593-1.438 0-1.036.641-1.742 1.56-1.742s1.537.683 1.537 1.772v1.134c0 1.405-.839 2.279-2.137 2.279m.673-2.712h.78v-.638c0-.76-.311-1.142-.894-1.142-.506 0-.838.41-.838 1.013 0 .56.238.76.952.76M4.4 37.176h.542c.033 0 .081.04.081.362 0 .321-.048.344-.08.344h-.568c-.648 0-1.013-.223-1.34-1.012l-.739.351c-1.05.507-1.354.955-1.354 1.644 0 .797.468 1.16 1.592 1.16h1.75l-.066.706H2.486c-1.519 0-2.225-.626-2.225-1.793 0-.944.468-1.691 1.772-2.279l1.52-.688c-.198-.585-.37-.76-.953-.76H.66l.092-.714h1.962c.945 0 1.365.395 1.636 1.757l-.772.337c.187.453.41.585.838.585"/><path fill="#466473" d="M5.86 36.569v-4h.688v4.007c0 .82-.542 1.307-1.347 1.307h-.253c-.033 0-.084-.026-.084-.345 0-.319.05-.362.084-.362H5.2a.6.6 0 0 0 .658-.607ZM9.592 37.527c0 .319-.04.344-.081.344h-.213c-.845 0-1.266-.534-1.266-1.438v-3.876h.671V36.4c0 .507.205.76.626.76h.18c.04 0 .08.033.08.362"/><path fill="#466473" d="M10.825 37.527c0 .337-.05.344-.083.344h-1.23c-.034 0-.084-.032-.084-.344 0-.311.05-.362.083-.362h1.23c.034 0 .084.04.084.362Z"/><path fill="#466473" d="M12.057 37.527c0 .337-.048.344-.08.344h-1.234c-.033 0-.08-.032-.08-.344 0-.311.047-.362.08-.362h1.233c.033 0 .081.04.081.362Z"/><path fill="#466473" d="M13.288 37.527c0 .337-.049.344-.081.344h-1.233c-.033 0-.081-.032-.081-.344 0-.311.048-.362.08-.362h1.234c.032 0 .08.04.08.362Z"/><path fill="#466473" d="M14.528 37.527c0 .337-.05.344-.083.344h-1.23c-.034 0-.084-.032-.084-.344 0-.311.05-.362.083-.362h1.23c.034 0 .084.04.084.362Z"/><path fill="#466473" d="M15.752 37.527c0 .337-.049.344-.082.344h-1.232c-.033 0-.082-.032-.082-.344 0-.311.049-.362.082-.362h1.232c.033 0 .082.04.082.362Z"/><path fill="#466473" d="M16.983 37.527c0 .337-.05.344-.083.344h-1.233c-.033 0-.081-.032-.081-.344 0-.311.048-.362.08-.362H16.9c.033 0 .084.04.084.362Z"/><path fill="#466473" d="M17.992 36.516V35.25h.684v1.266c0 .337.121.506.352.582 1.035-1.848 1.848-2.58 2.76-2.58.91 0 1.551.699 1.551 1.694a1.58 1.58 0 0 1-.195.795c.218.152.484.217.747.182h.188c.033 0 .083.033.083.362 0 .33-.05.345-.083.345h-.183c-.552 0-.855-.084-1.126-.37a1.773 1.773 0 0 1-1.15.37h-2.192c-.593 0-.945-.165-1.117-.486-.198.329-.56.486-1.076.486h-.33c-.032 0-.083-.026-.083-.345 0-.319.05-.362.084-.362h.329c.491 0 .76-.253.76-.65m4.666-.327a.931.931 0 0 0-.92-1.013c-.625 0-1.24.633-2.025 1.988h1.902c.666 0 1.043-.378 1.043-.978"/><path fill="#466473" d="M24.849 36.65v-.337c0-1.051.59-1.692 1.567-1.692s1.519.583 1.519 1.659c0 1.012-.585 1.602-1.544 1.602-.575 0-.963-.182-1.153-.506-.18.352-.465.506-.977.506h-.187c-.033 0-.084-.025-.084-.344 0-.319.05-.362.084-.362h.187c.395 0 .585-.172.585-.527m1.544-1.339c-.584 0-.863.33-.863 1.013a.79.79 0 0 0 .863.863c.568 0 .861-.288.861-.896 0-.608-.278-.97-.86-.97M40.221 35.25v1.266c0 .863-.544 1.372-1.397 1.372-.567 0-.912-.182-1.059-.506a1.19 1.19 0 0 1-1.086.506.923.923 0 0 1-.729-.238v.099c-.025 1.266-.93 2.142-2.236 2.142h-.362c-1.387 0-2.152-.846-2.152-2.279V36.06h.684v1.534c0 1.036.506 1.585 1.486 1.585h.344c.937 0 1.552-.582 1.552-1.519v-2.41h.684v1.306c0 .378.228.633.73.633.5 0 .771-.253.771-.648V35.25h.681v1.291c0 .41.23.648.692.648.46 0 .714-.238.714-.648V35.25h.683Zm-3.516-1.633h2.17v.648h-2.17v-.648Zm1.46-.479h-.746v-.648h.746v.648ZM42.523 39.885H41.51l-.066-.707h1.084c.879 0 1.438-.506 1.446-1.296h-.82c-1.143 0-1.593-.461-1.593-1.438 0-1.036.64-1.742 1.56-1.742.919 0 1.536.683 1.536 1.772v1.134c0 1.406-.838 2.279-2.137 2.279m.674-2.71h.78v-.64c0-.76-.312-1.142-.894-1.142-.506 0-.838.41-.838 1.013 0 .557.238.76.952.76M46.767 37.645v-2.396h.683v1.307c0 .403.238.633.689.633h.106c.033 0 .084.04.084.362s-.05.344-.084.344h-.106a.866.866 0 0 1-.689-.28v.098c-.025 1.332-.878 2.185-2.152 2.185h-.23l-.066-.706h.279c.929 0 1.486-.568 1.486-1.535"/><path fill="#466473" d="M50.116 37.143c-.886-.33-1.175-.659-1.175-1.292a1.535 1.535 0 0 1 1.577-1.56c1.013 0 1.585.649 1.585 1.773v.279c0 1.012-.696 1.544-2.01 1.544h-1.848c-.033 0-.084-.025-.084-.344 0-.32.05-.362.084-.362h1.453c.14.003.28-.008.418-.033m1.306-.846v-.197c0-.747-.319-1.117-.919-1.117a.869.869 0 0 0-.878.853c0 .527.319.798 1.501 1.183a.882.882 0 0 0 .296-.722Zm-1.38-3.545h.871v.684h-.87v-.684ZM56.366 39.885h-1.013l-.066-.707h1.084c.878 0 1.438-.506 1.445-1.296h-.82c-1.142 0-1.595-.461-1.595-1.438 0-1.036.64-1.742 1.562-1.742s1.535.683 1.535 1.772v1.134c0 1.406-.838 2.279-2.135 2.279m.674-2.71h.787v-.64c0-.76-.311-1.142-.896-1.142-.507 0-.836.41-.836 1.013 0 .557.238.76.952.76M64.153 36.733c0-.238-.154-.65-.911-2.686l.633-.289.962 2.727c.172.494.352.691.747.691h.172c.04 0 .08.04.08.362s-.04.345-.08.345h-.198c-.49 0-.82-.157-1.013-.52-.205.363-.534.52-1.035.52h-1.922l-.066-.707h1.988c.387 0 .64-.19.64-.443"/><path fill="#466473" d="M69.09 35.25v1.339c0 .82-.541 1.306-1.346 1.306h-1.98c-.033 0-.081-.025-.081-.344 0-.319.048-.362.08-.362h1.98a.59.59 0 0 0 .659-.608V35.25h.689Zm-1.076 4.337h-2.17v-.656h2.17v.656ZM70.902 37.645v-2.396h.684v1.307c0 .403.238.633.689.633h.106c.033 0 .084.04.084.362s-.051.344-.084.344h-.106a.866.866 0 0 1-.689-.28v.098c-.025 1.332-.881 2.185-2.152 2.185h-.218l-.066-.706h.279c.929 0 1.486-.568 1.486-1.535"/><path fill="#466473" d="M74.828 36.732 76.076 36c-.172-.6-.443-.79-1.033-.79H73.12l.091-.714h1.947c.978 0 1.406.436 1.717 1.735l-1.724 1.066a3.662 3.662 0 0 1-2.218.584h-.552c-.033 0-.081-.025-.081-.344 0-.319.048-.362.08-.362h.578a3.333 3.333 0 0 0 1.871-.443Zm-.673-3.879h.87v.684h-.87v-.684ZM79.448 39.885h-.228l-.066-.706h.279c.926 0 1.486-.565 1.486-1.534v-2.396h.681v2.408c0 1.388-.878 2.241-2.152 2.241M84.565 37.527c0 .319-.04.344-.084.344h-.212c-.846 0-1.266-.534-1.266-1.438v-3.876h.683V36.4c0 .507.205.76.623.76h.18c.043 0 .084.033.084.362"/><path fill="#466473" d="M86.181 39.574h-2.167v-.656h2.167v.656Zm1.643-2.046c0 .33-.048.355-.08.355h-.254c-.484 0-.83-.157-.985-.486a1.118 1.118 0 0 1-1.028.486h-.985c-.033 0-.08-.026-.08-.345 0-.319.047-.362.08-.362h.985c.42 0 .699-.23.699-.607v-1.32h.681v1.314c0 .41.23.626.658.626h.23c.034 0 .082.033.082.352"/><path fill="#466473" d="M91.066 37.529c0 .329-.048.354-.08.354h-.254c-.483 0-.828-.157-.985-.486a1.116 1.116 0 0 1-1.028.486h-.985c-.032 0-.08-.025-.08-.344 0-.32.047-.363.08-.363h.978c.42 0 .698-.23.698-.607v-1.32h.682v1.315c0 .413.23.625.658.625h.23c.033 0 .081.033.081.352m-2.965-3.924h2.17v.648h-2.17v-.648Z"/><path fill="#466473" d="M92.298 37.527c0 .337-.049.344-.082.344h-1.225c-.033 0-.08-.032-.08-.344 0-.311.047-.362.08-.362h1.233c.033 0 .081.04.081.362"/><path fill="#466473" d="M93.522 37.527c0 .337-.048.344-.081.344h-1.233c-.033 0-.081-.032-.081-.344 0-.311.048-.362.08-.362h1.234c.033 0 .081.04.081.362Z"/><path fill="#466473" d="M94.76 37.527c0 .337-.05.344-.083.344h-1.23c-.033 0-.084-.032-.084-.344 0-.311.05-.362.084-.362h1.23c.033 0 .084.04.084.362Z"/><path fill="#466473" d="M96.083 36.516v-1.267h.689v1.267c0 .412.23.65.731.65.502 0 .76-.253.76-.65v-1.267h.681v1.267c0 .412.238.65.699.65.461 0 .706-.238.706-.65v-1.267h.681v1.267c0 .863-.541 1.372-1.387 1.372-.567 0-.912-.182-1.069-.507a1.165 1.165 0 0 1-1.076.507c-.607 0-.952-.182-1.109-.507a1.164 1.164 0 0 1-1.076.507h-.64c-.033 0-.081-.026-.081-.345 0-.319.048-.362.08-.362h.641c.494 0 .76-.253.76-.65M103.904 33.743l1.577 1.815c.301.292.478.69.491 1.109 0 .706-.506 1.215-1.435 1.215h-2.342l-.066-.706h2.408c.483 0 .759-.205.759-.507a1.056 1.056 0 0 0-.337-.663l-1.534-1.772.479-.491ZM2.415 47.027h3.327c.033 0 .081.032.081.362 0 .329-.048.344-.08.344h-.854c.087.109.13.246.122.385 0 .954-.871 1.62-2.226 1.62h-.633C.765 49.738 0 48.89 0 47.46v-1.552h.681v1.535c0 1.035.506 1.585 1.489 1.585h.615c1.013 0 1.545-.345 1.545-.894 0-.296-.14-.428-.461-.428h-1.52l.066-.678Z"/><path fill="#466473" d="M6.593 47.733h-.856c-.03 0-.08-.025-.08-.344 0-.32.05-.362.08-.362h.856a.595.595 0 0 0 .666-.608v-1.332h.686v1.34c0 .82-.542 1.306-1.347 1.306m.099-4.304h.87v.681h-.87v-.681ZM10.902 47.402c0 .319-.041.344-.082.344h-.212c-.846 0-1.266-.534-1.266-1.438v-3.876h.68v3.843c0 .507.206.76.626.76h.18c.04 0 .081.033.081.362"/><path fill="#466473" d="M11.593 46.501v-.336c0-1.051.59-1.692 1.567-1.692.978 0 1.52.583 1.52 1.659v.23c0 .476.197.666.567.666h.205c.033 0 .083.033.083.362 0 .33-.05.344-.083.344h-.205c-.469 0-.78-.157-.927-.526a1.37 1.37 0 0 1-1.185.526c-.575 0-.96-.182-1.15-.506-.18.352-.468.506-.977.506h-.187c-.033 0-.084-.025-.084-.344 0-.319.051-.362.084-.362h.187c.395 0 .585-.172.585-.527Zm1.542-1.339c-.582 0-.86.33-.86 1.013a.791.791 0 0 0 .86.863c.567 0 .864-.288.864-.896 0-.608-.28-.97-.864-.97"/><path fill="#466473" d="M16.764 47.402c0 .337-.048.345-.08.345H15.45c-.033 0-.08-.033-.08-.345 0-.311.047-.362.08-.362h1.233c.033 0 .081.04.081.362Z"/><path fill="#466473" d="M17.997 47.402c0 .337-.05.345-.08.345h-1.234c-.033 0-.083-.033-.083-.345 0-.311.05-.362.083-.362h1.233c.03 0 .081.04.081.362Z"/><path fill="#466473" d="M19.227 47.402c0 .337-.048.345-.08.345h-1.234c-.033 0-.081-.033-.081-.345 0-.311.048-.362.081-.362h1.233c.033 0 .081.04.081.362Z"/><path fill="#466473" d="M20.46 47.402c0 .337-.05.345-.084.345h-1.233c-.032 0-.08-.033-.08-.345 0-.311.048-.362.08-.362h1.233c.034 0 .084.04.084.362Z"/><path fill="#466473" d="M21.69 47.402c0 .337-.048.345-.08.345h-1.234c-.033 0-.081-.033-.081-.345 0-.311.048-.362.081-.362h1.24c.034 0 .082.04.082.362"/><path fill="#466473" d="M22.921 47.402c0 .337-.048.345-.081.345h-1.223c-.033 0-.08-.033-.08-.345 0-.311.047-.362.08-.362h1.233c.033 0 .081.04.081.362"/><path fill="#466473" d="M24.15 47.402c0 .337-.051.345-.084.345h-1.23c-.033 0-.084-.033-.084-.345 0-.311.05-.362.084-.362h1.23c.033 0 .084.04.084.362Z"/><path fill="#466473" d="M25.385 47.402c0 .337-.048.345-.08.345H24.07c-.033 0-.08-.033-.08-.345 0-.311.047-.362.08-.362h1.233c.033 0 .081.04.081.362Z"/><path fill="#466473" d="M26.617 47.402c0 .337-.05.345-.083.345H25.3c-.033 0-.081-.033-.081-.345 0-.311.048-.362.08-.362h1.234c.033 0 .083.04.083.362Z"/><path fill="#466473" d="M27.849 47.402c0 .337-.05.345-.084.345h-1.23c-.033 0-.084-.033-.084-.345 0-.311.05-.362.084-.362h1.23c.033 0 .084.04.084.362Z"/><path fill="#466473" d="M29.079 47.402c0 .337-.049.345-.081.345h-1.233c-.033 0-.081-.033-.081-.345 0-.311.048-.362.08-.362h1.234c.032 0 .08.04.08.362Z"/><path fill="#466473" d="M30.312 47.402c0 .337-.051.345-.084.345h-1.23c-.033 0-.084-.033-.084-.345 0-.311.05-.362.084-.362h1.228c.033 0 .083.04.083.362"/><path fill="#466473" d="M31.543 47.402c0 .337-.05.345-.081.345h-1.236c-.033 0-.083-.033-.083-.345 0-.311.05-.362.083-.362h1.233c.03 0 .081.04.081.362"/><path fill="#466473" d="M32.772 47.402c0 .337-.048.345-.08.345h-1.234c-.033 0-.081-.033-.081-.345 0-.311.048-.362.081-.362h1.233c.033 0 .081.04.081.362Z"/><path fill="#466473" d="M34.006 47.402c0 .337-.05.345-.084.345h-1.23c-.033 0-.084-.033-.084-.345 0-.311.051-.362.084-.362h1.23c.033 0 .084.04.084.362Z"/><path fill="#466473" d="M35.237 47.402c0 .337-.048.345-.081.345h-1.233c-.033 0-.081-.033-.081-.345 0-.311.048-.362.08-.362h1.234c.033 0 .08.04.08.362Z"/><path fill="#466473" d="M36.47 47.402c0 .337-.05.345-.084.345h-1.233c-.033 0-.08-.033-.08-.345 0-.311.047-.362.08-.362h1.233c.033 0 .084.04.084.362Z"/><path fill="#466473" d="M37.7 47.402c0 .337-.051.345-.084.345h-1.23c-.034 0-.084-.033-.084-.345 0-.311.05-.362.083-.362h1.23c.034 0 .084.04.084.362Z"/><path fill="#466473" d="M38.93 47.402c0 .337-.048.345-.08.345h-1.234c-.033 0-.08-.033-.08-.345 0-.311.047-.362.08-.362h1.233c.033 0 .081.04.081.362Z"/><path fill="#466473" d="M42.185 47.38c0 .33-.051.354-.084.354h-.253c-.486 0-.83-.157-.985-.486a1.116 1.116 0 0 1-1.028.486h-.985c-.033 0-.083-.025-.083-.344 0-.319.05-.362.083-.362h.998c.418 0 .699-.23.699-.608V45.09h.68v1.314a.573.573 0 0 0 .656.625h.23c.034 0 .084.033.084.352m-2.965-3.924H41.4v.655h-2.168v-.655Z"/><path fill="#466473" d="m44.546 46.584 1.248-.732c-.172-.6-.443-.79-1.033-.79H42.84l.09-.714h1.946c.977 0 1.405.436 1.717 1.735l-1.724 1.068a3.678 3.678 0 0 1-2.218.582h-.55c-.033 0-.083-.025-.083-.344 0-.319.05-.362.083-.362h.575a3.332 3.332 0 0 0 1.871-.443Zm-.673-3.879h.87v.684h-.87v-.684ZM49.31 47.402c0 .319-.041.344-.084.344h-.213c-.846 0-1.266-.534-1.266-1.438v-3.876h.684v3.843c0 .507.205.76.622.76h.18c.043 0 .084.033.084.362"/><path fill="#466473" d="M50.631 46.39v-1.292h.689v1.291c0 .41.23.649.731.649.502 0 .76-.254.76-.649V45.1h.681v1.29c0 .41.238.649.699.649.46 0 .706-.238.706-.649V45.1h.681v1.265c0 .864-.542 1.372-1.387 1.372-.567 0-.912-.182-1.069-.506a1.168 1.168 0 0 1-1.076.506c-.607 0-.952-.182-1.109-.506a1.167 1.167 0 0 1-1.076.506h-.645c-.033 0-.081-.025-.081-.344 0-.319.048-.362.08-.362h.641c.507 0 .76-.253.76-.648M64.589 45.087v1.355c0 .805-.542 1.291-1.34 1.291h-2.94c-.987 0-1.453-.567-1.453-1.42v-1.226h.681v1.134c0 .507.239.806.813.806h2.9a.594.594 0 0 0 .657-.6v-1.34h.682Zm-3.96-1.34h2.17v.651h-2.17v-.65ZM66.663 42.419h-.68v5.314h.68v-5.314ZM69.94 47.028h.107c.033 0 .081.04.081.362 0 .321-.048.344-.08.344h-.107a.876.876 0 0 1-.691-.28v.098c-.026 1.332-.879 2.187-2.153 2.187h-.574l-.066-.708h.625c.927 0 1.487-.565 1.487-1.535v-2.408h.68v1.302c0 .402.239.633.692.633m-1.52-3.606h.872v.694h-.871v-.694Z"/><path fill="#466473" d="M72.116 49.428h-2.17v-.656h2.17v.656Zm1.83-2.046c0 .329-.047.354-.08.354h-.254c-.483 0-.83-.157-.984-.486a1.117 1.117 0 0 1-1.028.486h-1.552c-.033 0-.081-.025-.081-.344 0-.32.048-.362.08-.362H71.6c.42 0 .698-.23.698-.608V45.09h.681v1.314c0 .41.23.626.659.626h.23c.033 0 .081.033.081.352"/><path fill="#466473" d="M75.177 47.402c0 .337-.05.345-.084.345h-1.23c-.033 0-.084-.033-.084-.345 0-.311.051-.362.084-.362h1.23c.033 0 .084.04.084.362Z"/><path fill="#466473" d="M76.408 47.402c0 .337-.048.345-.081.345h-1.233c-.033 0-.081-.033-.081-.345 0-.311.048-.362.08-.362h1.234c.033 0 .08.04.08.362Z"/><path fill="#466473" d="M77.64 47.402c0 .337-.05.345-.083.345h-1.23c-.033 0-.084-.033-.084-.345 0-.311.05-.362.084-.362h1.23c.033 0 .084.04.084.362Z"/><path fill="#466473" d="M78.871 47.402c0 .337-.05.345-.08.345h-1.234c-.033 0-.083-.033-.083-.345 0-.311.05-.362.083-.362h1.233c.03 0 .081.04.081.362Z"/><path fill="#466473" d="M80.103 47.402c0 .337-.048.345-.081.345h-1.233c-.033 0-.081-.033-.081-.345 0-.311.048-.362.081-.362h1.233c.033 0 .081.04.081.362Z"/><path fill="#466473" d="M81.334 47.402c0 .337-.05.345-.083.345h-1.23c-.034 0-.085-.033-.085-.345 0-.311.051-.362.084-.362h1.23c.034 0 .084.04.084.362Z"/><path fill="#466473" d="M82.564 47.402c0 .337-.048.345-.081.345H81.25c-.033 0-.081-.033-.081-.345 0-.311.048-.362.08-.362h1.234c.033 0 .081.04.081.362Z"/><path fill="#466473" d="M83.798 47.402c0 .337-.05.345-.084.345h-1.233c-.032 0-.08-.033-.08-.345 0-.311.048-.362.08-.362h1.233c.033 0 .084.04.084.362Z"/><path fill="#466473" d="M85.028 47.402c0 .337-.05.345-.083.345h-1.23c-.034 0-.084-.033-.084-.345 0-.311.05-.362.083-.362h1.23c.034 0 .084.04.084.362Z"/><path fill="#466473" d="M86.26 47.402c0 .337-.049.345-.082.345h-1.233c-.033 0-.08-.033-.08-.345 0-.311.047-.362.08-.362h1.236c.033 0 .08.04.08.362"/><path fill="#466473" d="M87.492 47.402c0 .337-.05.345-.084.345H86.18c-.033 0-.083-.033-.083-.345 0-.311.05-.362.083-.362h1.23c.034 0 .084.04.084.362"/><path fill="#466473" d="M92.51 47.402c0 .32-.05.345-.083.345-.714 0-1.013.139-1.314.731l-.674 1.239h-.377c-1.175 0-1.889-.664-1.889-1.872v-.098h-.76c-.032 0-.083-.026-.083-.345 0-.319.05-.362.084-.362h.76v-.878c0-1.094.582-1.773 1.518-1.773.904 0 1.471.56 1.471 1.454 0 1.068-.962 1.856-2.316 1.88v.1c0 .83.402 1.215 1.207 1.215l.507-.92c.476-.863.87-1.075 1.863-1.075.033 0 .084.033.084.362m-2.818-2.327c-.542 0-.838.387-.838 1.086v.879c1.012 0 1.635-.443 1.635-1.16a.73.73 0 0 0-.797-.805Z"/><path fill="#466473" d="M93.27 44.35h1.947c.977 0 1.405.435 1.716 1.734l-.648.395a.76.76 0 0 0 .82.55h.542c.033 0 .084.04.084.361 0 .322-.05.344-.084.344h-.58c-.647 0-.984-.222-1.306-.936l-.564.354a3.684 3.684 0 0 1-2.218.582h-.552c-.033 0-.081-.025-.081-.344 0-.319.048-.362.08-.362h.59a3.337 3.337 0 0 0 1.874-.443l1.248-.732c-.172-.6-.443-.79-1.035-.79h-1.922l.089-.714Zm.689 4.42h.87v.689h-.87v-.689Z"/><path fill="#466473" d="M99.157 45.089h.683v1.339c0 .82-.544 1.306-1.35 1.306h-.852c-.033 0-.081-.025-.081-.344 0-.319.048-.362.08-.362h.854a.596.596 0 0 0 .666-.608V45.09Zm.937-.985h-2.168v-.648h2.18l-.012.648ZM104.098 49.739h-1.013l-.065-.709h1.083c.881 0 1.438-.506 1.446-1.296h-.82c-1.142 0-1.593-.461-1.593-1.438 0-1.036.641-1.742 1.56-1.742s1.537.683 1.537 1.772v1.134c0 1.405-.839 2.279-2.137 2.279m.673-2.712h.78v-.638c0-.76-.311-1.142-.894-1.142-.506 0-.838.41-.838 1.013 0 .56.238.76.952.76"/><path fill="#F15A22" d="M165.953 5.632h-9.568v32.535h9.568V5.632ZM146.816 19.027h-9.568v19.138h9.568V19.027ZM156.385 38.164h-9.568v9.568h9.568v-9.568ZM137.246 5.632H123.85v13.396h13.396V5.632ZM170.339 9.773V6.555h-1.205v-.29h2.742v.29h-1.208v3.218h-.329ZM172.462 9.773V6.266h.646l1.091 3.317h.063l1.091-3.317h.646v3.507h-.322V6.456h-.06l-1.094 3.317h-.587l-1.092-3.317h-.063v3.317h-.319Z"/></svg>