<svg width="119" height="119" viewBox="0 0 119 119" fill="none" xmlns="http://www.w3.org/2000/svg">
<rect width="119" height="119" fill="#FAFAFA"/>
<path fill-rule="evenodd" clip-rule="evenodd" d="M36.3125 46.25C36.3125 43.5058 38.5371 41.2812 41.2812 41.2812H77.7188C80.4629 41.2812 82.6875 43.5058 82.6875 46.25V72.75C82.6875 75.4942 80.4629 77.7188 77.7188 77.7188H41.2812C38.5371 77.7188 36.3125 75.4942 36.3125 72.75V46.25ZM39.625 68.4673V72.75C39.625 73.6647 40.3665 74.4062 41.2812 74.4062H77.7188C78.6335 74.4062 79.375 73.6647 79.375 72.75V68.4673L73.436 62.5283C72.1424 61.2347 70.0451 61.2347 68.7515 62.5283L66.811 64.4688L68.9524 66.6101C69.5992 67.2569 69.5992 68.3056 68.9524 68.9524C68.3056 69.5992 67.2569 69.5992 66.6101 68.9524L55.2173 57.5596C53.9237 56.266 51.8263 56.266 50.5327 57.5596L39.625 68.4673ZM61.9844 51.2188C61.9844 49.8467 63.0967 48.7344 64.4688 48.7344C65.8408 48.7344 66.9531 49.8467 66.9531 51.2188C66.9531 52.5908 65.8408 53.7031 64.4688 53.7031C63.0967 53.7031 61.9844 52.5908 61.9844 51.2188Z" fill="#9E9E9E"/>
</svg>
