<svg width="119" height="120" viewBox="0 0 119 120" fill="none" xmlns="http://www.w3.org/2000/svg">
<rect width="119" height="119" transform="translate(0 0.799805)" fill="#FAFAFA"/>
<path d="M40.4531 43.7373C38.1663 43.7373 36.3125 45.5911 36.3125 47.8779V63.6123H62.8125V47.8779C62.8125 45.5911 60.9587 43.7373 58.6719 43.7373H40.4531Z" fill="#9E9E9E"/>
<path d="M62.8125 66.9248H36.3125V72.7217C36.3125 75.0085 38.1663 76.8623 40.4531 76.8623H41.2812C41.2812 73.2034 44.2474 70.2373 47.9062 70.2373C51.5651 70.2373 54.5312 73.2034 54.5312 76.8623H61.1562C62.071 76.8623 62.8125 76.1208 62.8125 75.2061V66.9248Z" fill="#9E9E9E"/>
<path d="M51.2188 76.8623C51.2188 75.0329 49.7357 73.5498 47.9062 73.5498C46.0768 73.5498 44.5938 75.0329 44.5938 76.8623C44.5938 78.6917 46.0768 80.1748 47.9062 80.1748C49.7357 80.1748 51.2188 78.6917 51.2188 76.8623Z" fill="#9E9E9E"/>
<path d="M67.7812 48.7061C66.8665 48.7061 66.125 49.4476 66.125 50.3623V75.2061C66.125 75.3977 66.1576 75.5818 66.2175 75.7531C66.7452 72.6223 69.4691 70.2373 72.75 70.2373C76.3809 70.2373 79.3295 73.1581 79.3745 76.7783C81.259 76.3918 82.737 74.7127 82.6081 72.621C82.0935 64.2727 79.1046 56.5921 74.3674 50.3069C73.5847 49.2684 72.3669 48.7061 71.1204 48.7061H67.7812Z" fill="#9E9E9E"/>
<path d="M76.0625 76.8623C76.0625 75.0329 74.5794 73.5498 72.75 73.5498C70.9206 73.5498 69.4375 75.0329 69.4375 76.8623C69.4375 78.6917 70.9206 80.1748 72.75 80.1748C74.5794 80.1748 76.0625 78.6917 76.0625 76.8623Z" fill="#9E9E9E"/>
</svg>
