<svg xmlns="http://www.w3.org/2000/svg" width="20" height="20" viewBox="0 0 20 20" fill="none">
  <g clip-path="url(#clip0_6107_376)">
    <path d="M10 0C7.34844 0 4.80312 1.05422 2.92969 2.92891C1.05432 4.80434 0.000519484 7.34778 0 10C0 12.6511 1.05469 15.1964 2.92969 17.0711C4.80312 18.9458 7.34844 20 10 20C12.6516 20 15.1969 18.9458 17.0703 17.0711C18.9453 15.1964 20 12.6511 20 10C20 7.34891 18.9453 4.80359 17.0703 2.92891C15.1969 1.05422 12.6516 0 10 0Z" fill="url(#paint0_linear_6107_376)"/>
    <path d="M4.52656 9.89435C7.44219 8.62435 9.38594 7.78701 10.3578 7.38247C13.1359 6.22732 13.7125 6.02669 14.0891 6.0199C14.1719 6.01857 14.3563 6.03904 14.4766 6.1363C14.5766 6.21833 14.6047 6.32927 14.6187 6.40716C14.6312 6.48497 14.6484 6.66232 14.6344 6.80076C14.4844 8.38201 13.8328 12.2192 13.5016 13.9903C13.3625 14.7397 13.0859 14.9909 12.8188 15.0154C12.2375 15.0689 11.7969 14.6317 11.2344 14.2631C10.3547 13.6861 9.85781 13.327 9.00313 12.764C8.01563 12.1134 8.65625 11.7558 9.21875 11.1714C9.36563 11.0184 11.925 8.69107 11.9734 8.47997C11.9797 8.45357 11.9859 8.35513 11.9266 8.30325C11.8688 8.25122 11.7828 8.26904 11.7203 8.2831C11.6313 8.3031 10.2266 9.23247 7.50156 11.0711C7.10312 11.3451 6.74219 11.4787 6.41719 11.4717C6.06094 11.464 5.37344 11.2698 4.8625 11.1039C4.2375 10.9003 3.73906 10.7926 3.78281 10.4468C3.80469 10.2668 4.05312 10.0826 4.52656 9.89435Z" fill="white"/>
  </g>
  <defs>
    <linearGradient id="paint0_linear_6107_376" x1="1000" y1="0" x2="1000" y2="2000" gradientUnits="userSpaceOnUse">
      <stop stop-color="#2AABEE"/>
      <stop offset="1" stop-color="#229ED9"/>
    </linearGradient>
    <clipPath id="clip0_6107_376">
      <rect width="20" height="20" fill="white"/>
    </clipPath>
  </defs>
</svg>